<?xml version="1.0" standalone="no"?>
<!DOCTYPE svg PUBLIC "-//W3C//DTD SVG 20010904//EN"
 "http://www.w3.org/TR/2001/REC-SVG-20010904/DTD/svg10.dtd">
<svg version="1.0" xmlns="http://www.w3.org/2000/svg"
 width="1280.000000pt" height="719.000000pt" viewBox="0 0 1280.000000 719.000000"
 preserveAspectRatio="xMidYMid meet">

<g transform="translate(0.000000,719.000000) scale(0.100000,-0.100000)"
fill="#000000" stroke="none">
<path d="M0 3595 l0 -3595 1013 0 1012 0 29 40 c22 30 39 41 65 45 71 12 164
36 195 52 17 9 50 33 73 54 22 21 61 47 85 60 23 12 57 36 73 54 66 71 116
140 122 166 3 15 13 30 22 32 11 3 10 5 -5 6 -12 0 -24 8 -28 16 -3 8 -13 15
-22 15 -12 0 -14 5 -8 17 4 10 6 37 5 60 -1 23 3 45 10 48 8 6 8 10 -2 16 -11
6 -10 12 4 27 9 10 17 22 17 27 0 4 16 25 35 46 19 22 36 50 36 64 1 14 3 30
4 35 1 6 3 14 4 19 2 16 32 21 54 10 21 -9 21 -9 4 5 -18 14 -16 17 32 64 37
36 73 59 129 82 131 53 176 73 196 90 21 17 85 111 103 150 6 14 20 45 32 70
11 25 24 57 30 72 7 20 19 29 45 34 43 8 38 19 -15 35 -43 13 -100 80 -112
130 -5 18 -19 32 -48 45 -54 24 -106 22 -163 -4 -41 -20 -47 -20 -73 -7 -34
18 -93 19 -128 3 -37 -17 -49 0 -31 43 16 40 23 99 13 116 -4 6 -2 23 4 37 19
40 5 59 -36 52 -31 -6 -35 -4 -35 14 0 13 -9 24 -25 30 -28 11 -30 20 -10 74
7 21 11 44 9 50 -3 7 6 18 19 25 26 14 46 60 90 200 18 57 23 89 17 97 -23 26
-42 119 -36 170 5 47 4 52 -19 62 -14 7 -22 17 -20 25 3 7 -6 23 -19 35 -20
17 -24 26 -17 44 4 12 17 27 27 33 10 5 22 14 26 19 3 5 24 9 45 8 32 -1 46 5
77 33 54 50 131 58 191 20 24 -15 210 -17 238 -3 11 6 23 6 30 0 7 -5 37 -12
67 -16 30 -4 71 -10 90 -14 19 -3 62 -5 95 -3 143 8 313 0 341 -16 24 -14 127
6 149 28 18 20 43 114 50 189 3 36 9 90 13 120 8 55 0 81 -36 119 -11 12 -11
15 0 22 10 7 9 9 -4 9 -22 0 -34 20 -18 30 8 5 4 9 -12 13 -13 4 -48 29 -77
57 -39 38 -50 56 -46 71 5 15 1 19 -19 19 -23 0 -30 10 -28 40 0 3 -23 4 -51
4 -38 -1 -55 3 -66 17 -24 28 -133 52 -166 37 -24 -11 -29 -9 -43 9 -10 11
-27 24 -40 28 -22 6 -32 35 -12 35 6 0 10 5 10 10 0 6 -7 10 -15 10 -9 0 -15
9 -15 25 0 36 46 56 133 58 43 1 76 7 82 14 6 7 33 14 61 15 46 2 54 -1 77
-27 22 -26 27 -28 48 -17 13 7 38 12 54 11 17 0 42 2 58 6 17 5 27 3 27 -4 0
-6 6 -11 14 -11 21 0 11 88 -13 114 -22 25 -41 60 -41 76 0 8 10 9 33 4 17 -4
52 -6 76 -5 39 2 43 0 38 -18 -3 -12 -2 -23 3 -26 4 -2 47 -9 95 -14 91 -11
149 -6 123 10 -35 22 41 72 126 84 27 3 66 15 86 25 38 19 50 48 50 121 0 32
25 44 117 58 34 5 82 19 107 29 24 11 58 23 75 27 17 4 31 13 31 21 0 8 8 18
18 21 9 4 26 15 36 25 11 10 26 18 33 18 7 0 13 7 13 15 0 8 7 15 16 15 41 0
107 105 107 170 0 18 36 60 52 60 7 0 25 6 41 14 31 16 123 24 141 13 6 -4 50
-6 97 -4 83 2 87 3 98 29 10 21 21 28 55 33 51 7 108 -2 124 -21 15 -18 47 -9
76 23 19 20 26 22 44 12 19 -10 21 -9 16 5 -4 9 -2 16 3 16 6 0 1 9 -10 20
-11 11 -27 20 -35 20 -24 0 -17 30 10 40 35 13 31 23 -5 15 -18 -4 -30 -2 -30
3 0 6 -9 8 -20 5 -15 -4 -20 0 -21 13 -3 39 3 60 23 80 19 22 19 22 -5 40 -14
11 -33 24 -43 30 -16 10 -17 13 -5 28 10 12 11 23 4 39 -5 12 -8 51 -5 86 4
59 8 67 46 104 40 39 43 40 121 44 72 4 83 7 111 34 18 17 54 37 85 45 95 27
99 28 99 10 0 -9 -8 -16 -17 -16 -13 0 -14 -3 -5 -12 19 -19 14 -57 -13 -86
-29 -31 -30 -40 -9 -67 10 -13 27 -20 51 -20 23 0 39 -6 47 -17 17 -27 -32
-72 -79 -72 -24 0 -35 -5 -35 -15 0 -8 -7 -22 -16 -32 -14 -15 -12 -18 17 -28
24 -8 34 -8 40 0 11 19 52 -16 55 -48 2 -15 8 -29 14 -31 5 -2 10 -11 10 -21
0 -13 8 -16 45 -14 24 1 47 -2 50 -7 4 -6 11 -8 16 -5 15 10 -17 35 -45 35
-14 0 -26 5 -26 10 0 6 -7 10 -16 10 -12 0 -15 6 -11 21 4 14 -2 27 -19 42
-35 30 -30 37 23 37 37 0 44 3 35 12 -22 22 -13 28 41 27 28 -1 71 4 95 10 24
7 53 9 65 5 20 -6 20 -5 8 10 -13 15 -11 20 13 41 17 15 34 21 48 17 14 -3 19
-1 14 6 -4 7 -14 12 -22 12 -8 0 -22 8 -33 18 -99 91 -130 126 -133 145 -2 16
-9 21 -25 20 -17 -2 -23 4 -28 27 -4 17 -16 36 -27 44 -11 8 -17 19 -13 25 3
6 0 14 -9 17 -8 3 -17 24 -21 47 -10 63 -15 77 -29 77 -7 0 -26 11 -42 25
l-29 25 -5 -22 c-4 -16 -14 -23 -30 -24 -14 -1 -40 -5 -59 -9 -31 -7 -34 -6
-28 11 7 18 6 18 -7 2 -7 -10 -18 -18 -24 -18 -6 0 -12 -3 -14 -7 -1 -5 -23
-19 -48 -32 -25 -13 -56 -33 -69 -43 -13 -10 -27 -18 -32 -18 -4 0 -30 -13
-57 -29 -27 -16 -71 -31 -98 -35 -71 -8 -164 -10 -171 -2 -4 3 -21 6 -40 6
-20 0 -36 6 -39 15 -3 8 -31 22 -62 32 -76 23 -87 31 -67 53 8 9 15 20 15 24
0 5 -9 -2 -19 -15 l-20 -24 -21 21 c-18 17 -19 25 -10 49 13 34 9 38 -30 37
-36 -1 -43 8 -31 39 4 13 5 31 0 39 -4 8 -18 48 -30 88 -12 41 -29 76 -36 79
-10 4 -12 14 -8 35 5 21 2 35 -11 49 -18 20 -18 21 5 38 13 10 21 23 17 30 -4
6 3 15 19 21 22 9 24 12 13 30 -7 11 -18 20 -25 20 -19 0 -16 12 12 42 14 15
25 32 25 38 0 5 3 10 8 11 4 0 17 2 29 3 13 2 32 11 42 21 11 9 27 15 35 12 9
-4 29 6 48 23 18 17 38 30 45 30 7 0 22 6 33 13 17 10 22 9 31 -3 8 -13 12
-12 28 7 12 14 46 29 101 42 46 12 85 21 88 21 2 0 0 6 -6 13 -17 20 2 38 47
44 31 4 41 10 39 22 -2 10 6 17 22 19 14 2 30 10 37 19 10 13 17 14 43 3 16
-7 30 -17 30 -22 0 -5 6 -8 13 -7 6 1 25 -3 41 -10 30 -12 45 -4 46 26 0 7 10
15 23 18 12 3 28 19 36 36 9 20 20 29 37 29 13 0 24 4 24 8 0 5 16 14 35 22
19 8 35 17 35 21 0 4 9 11 21 14 24 8 18 18 -13 20 -54 4 -14 47 55 58 20 3
37 2 37 -4 0 -5 11 -9 25 -9 16 0 25 6 25 15 0 15 17 20 54 16 21 -1 48 17 41
29 -8 13 6 40 21 40 7 0 18 9 24 20 9 17 7 20 -15 26 -31 8 -31 17 -3 44 12
11 16 20 10 20 -7 0 -12 5 -12 11 0 7 11 9 30 5 39 -7 80 9 80 31 1 28 25 53
52 53 13 0 35 11 48 25 13 14 34 25 47 25 13 0 22 3 22 8 -4 23 5 29 39 28 49
-3 157 54 133 69 -18 11 8 55 39 68 8 3 -1570 6 -3507 6 l-3523 1 0 -3595z
m1570 3324 c0 -5 9 -9 20 -9 11 0 20 -6 20 -14 0 -30 61 -29 105 0 27 20 95
18 95 -1 0 -8 -9 -15 -19 -15 -10 0 -29 -9 -42 -20 l-24 -20 35 3 c32 2 35 0
33 -24 -1 -22 2 -25 22 -21 14 2 31 -3 40 -12 9 -9 29 -16 45 -16 49 0 83 -18
77 -40 -3 -11 -2 -20 3 -20 4 0 11 -12 14 -26 5 -20 1 -30 -21 -47 -38 -30
-72 -47 -95 -47 -10 0 -30 -12 -44 -27 -14 -16 -37 -29 -52 -30 -14 -1 -28 -7
-32 -13 -4 -6 -24 -10 -46 -9 -52 3 -135 -17 -213 -52 -35 -16 -80 -29 -100
-29 -69 0 -150 -19 -181 -42 -29 -21 -42 -23 -153 -23 -151 0 -262 15 -349 47
-63 24 -76 25 -219 20 l-152 -4 7 33 c8 43 11 45 39 26 15 -9 29 -12 37 -7 8
5 18 6 22 4 4 -3 18 2 30 10 18 13 19 16 5 16 -9 0 -17 6 -17 14 0 8 -13 19
-30 25 -19 6 -30 17 -30 29 0 16 -10 20 -66 26 -40 4 -88 2 -118 -4 -36 -9
-59 -9 -78 -1 -40 15 -37 41 5 41 65 1 193 29 239 53 l48 25 -28 9 c-30 9 -92
8 -167 -3 -27 -4 -65 -7 -82 -6 -95 3 -123 6 -123 15 0 14 32 36 52 37 10 0
17 6 15 12 -1 7 8 14 20 16 12 2 25 12 28 23 13 38 85 60 127 38 11 -6 23 -8
26 -4 3 3 -4 8 -16 12 -14 3 -22 12 -20 22 5 23 150 29 184 6 13 -8 29 -15 36
-15 7 0 25 -6 40 -14 15 -8 40 -17 56 -21 35 -7 46 -28 30 -54 -9 -15 -7 -23
9 -40 13 -15 23 -19 28 -12 3 6 19 18 35 26 23 12 34 13 55 3 37 -17 54 2 31
36 -21 33 -21 32 13 44 21 7 35 7 52 -4 13 -7 34 -18 47 -23 12 -6 22 -15 22
-21 0 -5 8 -10 19 -10 14 0 17 6 14 24 -4 20 1 25 45 40 68 22 85 20 121 -9
l30 -26 3 23 c3 20 9 23 48 23 29 0 52 -6 64 -17 25 -23 41 -23 63 1 15 16 30
19 80 18 67 -2 82 5 64 27 -17 21 -4 39 25 33 12 -2 28 -1 34 3 14 9 60 0 60
-11z m1683 -725 c46 -8 47 -19 2 -45 -25 -15 -35 -28 -35 -46 0 -13 -5 -33
-11 -44 -7 -15 -7 -24 1 -35 19 -22 -15 -30 -45 -10 -26 17 -34 51 -12 59 19
7 -17 40 -49 43 -15 2 -33 5 -40 8 -20 8 -17 36 4 36 10 0 22 4 28 9 11 11 70
29 99 30 11 0 37 -2 58 -5z m1004 -304 c0 -23 -6 -32 -23 -36 -25 -6 -44 -46
-25 -52 18 -6 13 -18 -14 -30 -14 -6 -25 -19 -25 -28 0 -9 -7 -14 -17 -12 -12
2 -17 12 -16 25 2 16 -4 23 -26 28 -36 8 -44 25 -28 59 8 18 23 28 47 33 19 3
48 14 65 24 46 27 62 24 62 -11z m-362 -285 l28 -25 -31 -28 c-17 -15 -34 -40
-37 -54 -8 -32 -14 -37 -85 -68 -30 -13 -59 -28 -65 -33 -7 -7 -6 -8 2 -3 21
11 27 -16 7 -31 -17 -14 -16 -14 16 -6 55 13 317 8 335 -7 22 -19 18 -46 -10
-64 -14 -9 -25 -25 -25 -35 0 -19 -43 -71 -59 -71 -5 0 -12 -9 -16 -19 -3 -10
-16 -21 -28 -25 -21 -5 -21 -6 -2 -20 20 -15 20 -15 0 -29 -18 -14 -16 -16 33
-30 28 -9 67 -27 84 -40 18 -13 41 -27 50 -30 9 -3 22 -25 28 -49 7 -24 17
-49 23 -57 6 -7 16 -23 22 -35 7 -14 27 -25 59 -33 50 -12 96 -37 96 -52 0 -5
14 -14 30 -21 30 -12 42 -40 18 -40 -7 0 2 -14 20 -30 24 -22 31 -36 28 -54
-3 -18 -1 -23 9 -20 14 6 35 -24 35 -50 0 -8 -9 -18 -20 -21 -11 -3 -20 -11
-20 -16 0 -14 32 -10 54 6 13 10 36 12 89 8 123 -11 167 -55 132 -132 -18 -42
-88 -101 -117 -101 -11 0 -17 -4 -13 -9 3 -5 1 -12 -5 -16 -24 -15 -6 -25 40
-23 27 1 51 0 54 -2 2 -3 2 -17 -1 -32 -4 -22 -12 -29 -40 -34 -19 -4 -37 -12
-39 -19 -3 -7 -26 -16 -52 -20 -26 -3 -57 -13 -69 -21 -16 -10 -29 -11 -48 -4
-35 13 -111 13 -137 -1 -15 -8 -22 -8 -28 1 -11 17 -13 17 -40 -7 -27 -26 -31
-27 -84 -12 -29 8 -45 8 -62 -1 -13 -7 -36 -10 -53 -7 -18 4 -31 2 -31 -3 0
-15 -19 -12 -36 5 -18 17 -105 21 -134 5 -10 -5 -20 -20 -24 -33 -7 -29 -59
-55 -79 -40 -38 31 -197 13 -197 -22 0 -19 -38 -29 -56 -14 -8 6 -29 12 -47
13 -48 1 -41 28 10 41 23 5 53 20 66 33 14 13 39 31 57 41 18 9 31 19 29 21
-8 15 25 50 46 50 15 0 25 6 25 14 0 10 17 17 58 21 80 9 80 9 42 28 -23 12
-45 15 -68 11 -29 -6 -38 -3 -52 17 -14 17 -21 20 -32 12 -22 -18 -65 -24 -94
-13 -26 10 -53 36 -54 52 0 10 61 38 72 32 5 -3 14 -2 21 3 7 5 32 15 57 22
61 17 81 37 74 70 -10 39 -20 46 -49 31 -14 -7 -28 -11 -31 -7 -4 3 -15 2 -25
-4 -16 -8 -19 -6 -19 10 0 12 13 25 35 35 19 9 35 19 35 22 0 3 -13 10 -30 15
-69 25 -1 66 72 45 24 -7 70 -11 103 -8 33 2 70 5 82 6 13 0 18 5 13 11 -11
14 -5 74 8 87 7 7 12 17 12 22 0 6 -5 5 -12 -2 -21 -21 -45 -13 -69 23 -13 19
-30 35 -36 35 -19 0 -16 23 7 48 24 26 28 51 5 32 -9 -7 -42 -14 -73 -16 -31
-1 -58 -7 -60 -13 -5 -15 -28 -14 -62 4 -28 15 -30 14 -30 -5 0 -27 -18 -25
-46 6 -31 33 -30 40 9 79 57 58 60 63 38 75 -27 14 -41 13 -35 -3 9 -24 -23
-42 -52 -28 -32 14 -32 14 -30 -6 0 -10 -9 -19 -25 -23 -43 -12 -52 1 -30 45
10 21 16 47 13 58 -4 17 -8 15 -38 -17 -32 -35 -84 -51 -84 -25 0 5 -4 8 -9 4
-5 -3 -12 -1 -16 5 -9 14 13 50 30 50 8 0 15 9 15 20 0 14 7 20 21 20 15 0 19
-5 15 -16 -4 -11 2 -10 24 6 17 12 30 23 30 26 0 2 -24 1 -54 -2 -57 -7 -78 5
-55 32 6 8 9 17 6 21 -4 3 -2 12 5 20 9 11 6 20 -10 43 -20 26 -20 30 -6 38
13 7 7 13 -30 30 -25 12 -46 26 -46 31 0 14 38 43 49 37 6 -4 19 -1 30 6 16
10 25 9 45 -1 25 -14 62 -8 52 8 -9 14 23 41 48 41 17 0 22 5 21 23 -3 25 13
49 26 41 5 -3 14 5 20 18 17 39 41 48 101 38 60 -9 205 3 222 20 7 7 6 10 -2
10 -13 0 -7 46 9 66 17 21 73 14 104 -11z m-602 -102 c2 -5 7 -21 11 -36 6
-24 3 -30 -14 -34 -11 -3 -20 -11 -20 -18 0 -7 -30 -28 -66 -46 -57 -29 -69
-40 -79 -71 -7 -21 -10 -39 -8 -42 8 -8 -74 -76 -91 -76 -13 0 -5 31 14 50 21
21 28 84 10 95 -17 11 -11 20 28 40 49 25 48 25 35 33 -26 16 10 54 75 77 35
13 66 26 69 29 9 8 31 7 36 -1z m-43 -328 c0 -13 -75 -55 -99 -55 -6 0 -11 9
-11 20 0 14 7 20 23 20 12 1 33 7 47 15 32 18 40 18 40 0z m-106 -246 c36 -17
49 -18 66 -9 44 24 98 3 161 -62 38 -39 59 -68 59 -84 0 -25 -26 -44 -59 -44
-12 0 -21 -4 -21 -10 0 -5 -13 -16 -30 -25 -32 -16 -41 -51 -16 -61 9 -3 14
-19 14 -37 -1 -18 2 -44 6 -59 6 -20 3 -35 -12 -55 -10 -15 -17 -33 -15 -39 2
-6 -3 -17 -12 -24 -8 -7 -15 -23 -15 -37 0 -22 -3 -23 -35 -17 -19 3 -43 3
-52 -1 -10 -4 -39 -7 -64 -6 -28 2 -52 -3 -60 -11 -14 -13 -97 -49 -149 -64
-14 -4 -27 -10 -30 -15 -3 -4 -28 -11 -55 -14 -28 -4 -66 -10 -85 -14 -51 -12
-99 -8 -109 8 -6 10 -19 12 -41 7 -31 -6 -32 -5 -26 20 5 17 3 23 -4 19 -5 -3
-18 1 -27 11 -16 15 -16 17 3 31 18 14 17 14 -13 8 -20 -4 -33 -3 -33 3 0 15
64 52 89 52 13 0 26 10 33 26 7 14 29 34 50 45 24 12 38 26 38 39 0 10 8 24
18 29 13 8 8 10 -25 11 -23 0 -45 4 -48 10 -3 5 -20 13 -38 18 -18 5 -32 14
-32 21 0 6 -7 16 -15 21 -12 8 -13 11 -1 19 7 5 21 6 31 4 15 -4 18 -1 13 16
-3 12 -13 21 -25 21 -11 0 -18 3 -16 8 3 4 10 21 17 38 9 24 20 33 44 37 44 7
130 -3 139 -17 5 -7 8 -6 8 3 0 9 8 12 28 8 19 -4 35 1 54 17 27 21 27 22 7
23 -36 3 -47 22 -24 39 11 8 20 22 20 32 0 10 14 21 35 28 84 28 108 34 133
34 14 0 29 5 32 10 10 16 41 12 89 -11z m480 -164 c12 -32 -8 -49 -81 -70 -33
-9 -29 13 9 52 34 35 62 42 72 18z m386 -830 c0 -8 -7 -15 -15 -15 -8 0 -15 7
-15 15 0 8 7 15 15 15 8 0 15 -7 15 -15z m-62 -42 c-4 -21 -19 -26 -38 -13
-13 9 -13 11 0 20 23 15 42 12 38 -7z m89 -37 c9 -9 -8 -26 -27 -26 -21 0 -34
15 -25 29 5 9 42 7 52 -3z"/>
<path d="M3844 5065 c-19 -14 -19 -14 3 -15 12 0 24 -6 26 -12 3 -7 5 -1 4 15
-2 31 -6 33 -33 12z"/>
<path d="M3880 5000 c6 -11 13 -20 16 -20 2 0 0 9 -6 20 -6 11 -13 20 -16 20
-2 0 0 -9 6 -20z"/>
<path d="M3957 4909 c4 -13 8 -18 11 -10 2 7 -1 18 -6 23 -8 8 -9 4 -5 -13z"/>
<path d="M3925 4864 c-12 -18 -23 -24 -37 -21 -16 5 -18 3 -9 -6 8 -8 16 -9
28 -1 17 10 49 54 40 54 -2 0 -12 -12 -22 -26z"/>
<path d="M3818 4853 c6 -2 18 -2 25 0 6 3 1 5 -13 5 -14 0 -19 -2 -12 -5z"/>
<path d="M3888 4573 c7 -3 16 -2 19 1 4 3 -2 6 -13 5 -11 0 -14 -3 -6 -6z"/>
<path d="M3966 4561 c18 -11 34 -25 37 -33 3 -8 6 -9 6 -1 1 13 -46 53 -63 53
-6 0 3 -9 20 -19z"/>
<path d="M4370 4570 c-9 -6 -10 -10 -3 -10 6 0 15 5 18 10 8 12 4 12 -15 0z"/>
<path d="M4309 4533 c-13 -16 -12 -17 4 -4 9 7 17 15 17 17 0 8 -8 3 -21 -13z"/>
<path d="M4068 4523 c7 -3 16 -2 19 1 4 3 -2 6 -13 5 -11 0 -14 -3 -6 -6z"/>
<path d="M4030 4510 c-9 -6 -10 -10 -3 -10 6 0 15 5 18 10 8 12 4 12 -15 0z"/>
<path d="M4177 4499 c7 -7 15 -10 18 -7 3 3 -2 9 -12 12 -14 6 -15 5 -6 -5z"/>
<path d="M4260 4494 c-17 -9 -20 -14 -9 -14 9 0 22 7 29 15 15 18 13 18 -20
-1z"/>
<path d="M4200 4471 c0 -5 8 -15 18 -22 15 -12 16 -12 5 2 -7 9 -10 19 -6 22
3 4 1 7 -5 7 -7 0 -12 -4 -12 -9z"/>
<path d="M4281 4398 c7 -16 19 -28 28 -28 13 0 13 2 0 13 -8 6 -20 19 -27 27
-11 13 -11 10 -1 -12z"/>
<path d="M4331 4344 c0 -11 3 -14 6 -6 3 7 2 16 -1 19 -3 4 -6 -2 -5 -13z"/>
<path d="M4353 4313 c9 -2 23 -2 30 0 6 3 -1 5 -18 5 -16 0 -22 -2 -12 -5z"/>
<path d="M4369 4283 c-13 -16 -12 -17 4 -4 9 7 17 15 17 17 0 8 -8 3 -21 -13z"/>
<path d="M4345 4249 c-4 -6 -5 -12 -2 -15 2 -3 7 2 10 11 7 17 1 20 -8 4z"/>
<path d="M3838 4239 c-2 -6 -19 -14 -38 -19 l-35 -8 35 -1 c25 -1 39 5 48 19
7 11 8 20 3 20 -5 0 -11 -5 -13 -11z"/>
<path d="M4326 4203 c-6 -14 -5 -15 5 -6 7 7 10 15 7 18 -3 3 -9 -2 -12 -12z"/>
<path d="M4274 4164 c-18 -14 -18 -15 4 -4 12 6 22 13 22 15 0 8 -5 6 -26 -11z"/>
<path d="M9260 7181 c0 -5 7 -11 15 -15 9 -3 15 0 15 9 0 8 -7 15 -15 15 -8 0
-15 -4 -15 -9z"/>
<path d="M10121 7179 c-1 -9 7 -23 17 -30 15 -12 16 -12 6 1 -6 8 -14 22 -17
30 -5 13 -6 12 -6 -1z"/>
<path d="M11570 7165 c36 -14 73 -25 83 -25 10 0 20 -8 23 -17 18 -53 31 -73
46 -73 23 0 23 -38 0 -65 -20 -24 -113 -78 -180 -104 -123 -49 -399 -63 -537
-28 -33 9 -114 18 -179 22 -74 4 -144 14 -184 27 -43 13 -79 18 -103 14 -26
-4 -42 -2 -53 9 -8 8 -31 15 -51 15 -20 0 -44 4 -54 10 -10 5 -31 6 -47 1 -28
-7 -25 -9 56 -48 47 -22 96 -44 109 -48 39 -12 111 -59 111 -73 0 -7 -11 -17
-24 -21 -13 -5 -26 -17 -29 -25 -4 -9 -13 -16 -22 -16 -8 0 -15 -1 -15 -3 0
-2 21 -25 46 -52 34 -37 44 -55 40 -71 -10 -37 11 -45 113 -45 49 0 58 -4 86
-33 36 -38 48 -43 136 -55 35 -4 71 -11 80 -15 10 -4 23 -1 32 8 8 8 17 12 20
9 3 -3 18 -2 33 1 24 6 25 9 11 24 -8 9 -12 23 -10 30 5 13 0 14 -74 12 -44
-1 -60 4 -97 29 -25 17 -49 31 -54 31 -5 0 -17 11 -26 25 -14 21 -14 26 -3 31
8 3 18 4 23 3 33 -6 44 2 38 26 -6 23 -4 25 17 21 13 -3 48 -10 77 -16 29 -5
67 -17 84 -26 28 -15 88 -27 192 -40 22 -3 58 -12 80 -20 53 -18 75 -18 82 1
3 8 21 17 40 21 49 9 44 25 -18 63 -27 16 -38 30 -38 46 0 28 7 33 86 61 34
12 72 29 85 38 13 9 40 16 61 16 45 0 135 34 165 62 12 12 35 21 50 21 73 -1
214 -22 262 -40 l53 -21 35 39 c19 21 33 45 30 53 -3 7 -1 18 5 24 13 13 -23
33 -72 41 -47 8 -51 38 -12 83 16 18 32 45 36 61 l6 27 -357 -1 -358 0 65 -24z"/>
<path d="M12673 7172 c10 -10 17 -21 17 -24 0 -3 -53 -9 -117 -13 -70 -4 -121
-11 -125 -18 -4 -6 -21 -16 -37 -22 -45 -15 -39 -29 20 -42 32 -7 61 -21 76
-37 13 -14 32 -26 41 -27 15 -1 210 2 240 4 9 0 12 27 12 99 l0 98 -72 0 c-68
0 -70 -1 -55 -18z"/>
<path d="M7915 7159 c-4 -6 -5 -12 -2 -15 2 -3 7 2 10 11 7 17 1 20 -8 4z"/>
<path d="M7200 7131 c0 -11 4 -22 9 -25 4 -3 6 6 3 19 -5 30 -12 33 -12 6z"/>
<path d="M7221 7074 c0 -11 3 -14 6 -6 3 7 2 16 -1 19 -3 4 -6 -2 -5 -13z"/>
<path d="M10050 7080 c-8 -5 -12 -12 -9 -15 4 -3 12 1 19 10 14 17 11 19 -10
5z"/>
<path d="M7202 6975 c-1 -38 4 -69 14 -85 10 -15 13 -17 8 -5 -4 11 -11 49
-14 85 l-7 65 -1 -60z"/>
<path d="M7956 7011 c4 -8 11 -28 15 -45 6 -29 7 -29 8 -5 1 14 -6 34 -15 45
-8 10 -12 13 -8 5z"/>
<path d="M10002 7000 c0 -14 2 -19 5 -12 2 6 2 18 0 25 -3 6 -5 1 -5 -13z"/>
<path d="M10170 7006 c0 -16 19 -26 80 -41 18 -4 15 0 -12 14 -20 12 -40 25
-43 31 -9 15 -25 12 -25 -4z"/>
<path d="M9969 6923 c-13 -16 -12 -17 4 -4 9 7 17 15 17 17 0 8 -8 3 -21 -13z"/>
<path d="M7953 6914 c-3 -8 2 -36 11 -62 9 -26 14 -33 10 -17 -3 17 -7 45 -8
63 -1 36 -4 39 -13 16z"/>
<path d="M6854 6878 l-19 -23 22 19 c12 10 29 16 38 12 9 -3 13 -2 10 4 -10
16 -31 11 -51 -12z"/>
<path d="M9938 6875 c-8 -18 -8 -32 2 -55 7 -17 15 -29 17 -27 2 3 -2 16 -8
31 -9 20 -9 32 -1 51 6 14 9 25 7 25 -3 0 -10 -11 -17 -25z"/>
<path d="M6928 6868 c5 -5 16 -8 23 -6 8 3 3 7 -10 11 -17 4 -21 3 -13 -5z"/>
<path d="M7216 6835 c-3 -9 -5 -35 -5 -58 2 -40 2 -39 9 13 7 59 6 71 -4 45z"/>
<path d="M6821 6823 c7 -12 15 -20 18 -17 3 2 -3 12 -13 22 -17 16 -18 16 -5
-5z"/>
<path d="M12131 6814 c0 -11 3 -14 6 -6 3 7 2 16 -1 19 -3 4 -6 -2 -5 -13z"/>
<path d="M7108 6793 c7 -3 16 -2 19 1 4 3 -2 6 -13 5 -11 0 -14 -3 -6 -6z"/>
<path d="M7956 6785 c-9 -26 -7 -32 5 -12 6 10 9 21 6 23 -2 3 -7 -2 -11 -11z"/>
<path d="M6842 6770 c0 -14 2 -19 5 -12 2 6 2 18 0 25 -3 6 -5 1 -5 -13z"/>
<path d="M7068 6783 c7 -3 16 -2 19 1 4 3 -2 6 -13 5 -11 0 -14 -3 -6 -6z"/>
<path d="M7140 6786 c0 -2 9 -6 20 -9 11 -3 18 -1 14 4 -5 9 -34 13 -34 5z"/>
<path d="M10010 6780 c0 -5 4 -10 9 -10 6 0 13 5 16 10 3 6 -1 10 -9 10 -9 0
-16 -4 -16 -10z"/>
<path d="M8617 6769 c-9 -6 -27 -7 -38 -4 -26 9 -141 -4 -134 -15 3 -4 -1 -12
-8 -17 -21 -17 -76 -32 -82 -23 -7 11 -66 -6 -76 -21 -4 -6 -29 -23 -55 -38
-51 -27 -71 -61 -37 -61 22 0 43 -18 43 -37 0 -7 -27 -26 -60 -43 -33 -17 -60
-34 -60 -38 0 -4 -15 -19 -34 -34 -37 -30 -146 -55 -146 -34 0 6 -6 0 -13 -14
-10 -19 -22 -26 -52 -28 -21 -2 -51 -12 -66 -23 -15 -10 -38 -19 -52 -19 -38
0 -57 -10 -57 -30 0 -11 -11 -22 -27 -28 -16 -5 -37 -18 -48 -28 -11 -11 -33
-27 -48 -37 -16 -10 -26 -25 -25 -35 2 -11 -5 -18 -19 -20 -13 -2 -23 -10 -23
-18 0 -8 -4 -14 -10 -14 -5 0 -10 -7 -10 -15 0 -8 7 -15 15 -15 8 0 15 -6 15
-13 0 -16 -31 -47 -46 -47 -15 0 -8 -76 10 -113 15 -32 18 -33 66 -31 41 2 53
-2 63 -17 14 -23 37 -25 37 -4 0 20 16 19 32 -3 7 -10 21 -21 31 -25 10 -4 25
-20 35 -37 9 -16 20 -30 23 -30 3 0 16 -9 29 -20 l23 -20 -25 -9 c-27 -10 -44
-37 -26 -43 8 -3 7 -11 -1 -26 -7 -13 -16 -20 -22 -17 -5 4 -12 0 -15 -9 -7
-20 -111 -69 -130 -62 -8 3 -17 -1 -20 -9 -4 -10 -14 -13 -30 -9 -13 4 -31 1
-38 -5 -8 -7 -20 -11 -28 -10 -46 8 -91 -34 -65 -60 8 -8 5 -15 -11 -27 -16
-11 -22 -25 -22 -55 0 -22 -5 -39 -11 -39 -6 0 -9 -7 -5 -15 3 -8 -2 -21 -10
-30 -9 -9 -13 -23 -10 -32 4 -9 -1 -24 -10 -35 -10 -10 -15 -21 -11 -24 6 -6
67 73 67 86 0 13 33 21 43 11 10 -10 5 -22 -66 -140 -27 -45 -55 -81 -62 -81
-7 0 -15 14 -19 31 -5 27 -8 30 -21 19 -8 -7 -15 -18 -15 -24 0 -7 -13 -25
-30 -41 -22 -21 -33 -25 -42 -17 -7 5 -45 13 -84 17 -60 6 -72 5 -77 -9 -4 -9
-18 -16 -35 -16 -15 0 -37 -6 -47 -14 -19 -14 -19 -14 -1 -35 19 -20 19 -23 2
-39 -17 -17 -83 -24 -215 -22 -68 1 -73 4 -56 37 10 18 11 32 4 44 -12 24 -39
13 -36 -14 1 -16 -4 -22 -18 -23 -49 -3 -50 -4 -26 -23 26 -20 21 -41 -9 -41
-10 0 -22 -4 -25 -10 -4 -6 8 -10 29 -10 30 0 36 -4 36 -21 0 -14 -5 -19 -18
-17 -28 4 -72 -23 -72 -44 0 -20 -21 -23 -51 -8 -13 8 -25 7 -40 0 -13 -7 -25
-8 -32 -2 -7 5 -27 13 -44 17 -25 5 -33 12 -33 28 -1 22 -1 22 -12 2 -6 -11
-16 -23 -22 -27 -12 -8 -36 9 -36 27 0 6 -12 18 -26 25 -24 13 -27 12 -45 -10
-29 -39 -10 -80 38 -80 12 0 34 -5 49 -10 23 -9 31 -7 50 11 17 16 30 20 48
15 31 -8 34 -32 6 -39 -11 -3 -20 -12 -20 -21 0 -9 -6 -16 -12 -17 -7 0 0 -5
15 -9 30 -9 70 1 82 19 3 6 25 11 49 11 30 0 52 8 77 26 30 22 41 25 88 20 29
-2 50 -2 47 1 -3 4 1 15 11 25 17 19 63 25 63 8 0 -5 11 -10 25 -10 20 0 25
-5 26 -27 1 -16 1 -31 1 -34 -1 -4 23 -19 53 -34 39 -19 59 -24 72 -17 16 8
171 40 274 57 20 3 44 14 54 25 10 11 34 22 54 26 20 3 52 12 71 19 19 7 79
18 131 25 87 11 100 10 135 -6 22 -9 45 -22 51 -27 20 -14 4 -28 -18 -17 -15
8 -19 7 -19 -3 0 -31 104 -36 165 -8 44 20 70 45 61 59 -10 17 18 30 56 27 28
-3 48 4 83 27 25 17 50 39 56 49 12 23 10 96 -3 122 -6 11 -7 45 -3 76 6 52
10 59 41 76 22 12 34 25 34 40 0 34 50 74 105 84 28 5 63 14 78 20 39 15 47
14 47 -8 0 -13 15 -25 49 -40 34 -14 51 -28 55 -45 10 -42 89 -50 157 -15 38
19 38 19 32 69 -3 29 -1 61 5 73 16 33 21 67 11 67 -5 0 -9 -3 -9 -7 0 -13
-49 -32 -56 -22 -3 5 -15 9 -27 9 -12 0 -31 12 -43 27 -19 24 -24 26 -39 13
-9 -8 -22 -15 -29 -16 -6 -1 -29 -10 -51 -19 -22 -10 -54 -18 -72 -19 -21 -1
-38 -10 -53 -28 -25 -32 -60 -38 -60 -10 0 10 5 23 12 30 9 9 9 12 -3 12 -8 0
-23 6 -33 13 -16 12 -17 17 -6 36 9 19 18 22 41 17 15 -3 31 -1 34 4 3 6 15
10 26 10 10 0 19 5 19 10 0 11 -7 14 -52 24 -42 10 -37 38 6 35 19 -2 41 3 51
11 15 12 23 12 60 -2 34 -12 45 -12 49 -3 2 7 16 11 29 10 18 -2 27 3 30 16 3
11 14 19 27 19 12 0 29 4 38 9 17 9 56 18 122 28 19 3 38 10 42 16 5 8 15 7
33 -1 19 -9 32 -9 46 -1 15 7 24 7 35 -2 11 -9 14 -8 14 4 0 20 40 26 98 15
149 -29 328 -45 362 -33 13 5 12 8 -3 17 -17 9 -17 11 -2 28 14 15 22 17 42 9
20 -7 28 -6 39 8 11 15 16 16 34 5 11 -7 25 -10 31 -6 5 3 17 0 25 -7 12 -10
13 -9 8 4 -10 28 29 39 98 27 64 -10 79 -7 61 11 -7 7 -43 11 -87 10 -42 -1
-76 3 -76 8 0 14 -32 23 -43 12 -16 -16 -57 9 -57 36 0 24 -10 29 -26 13 -5
-5 -34 -11 -64 -13 -30 -3 -63 -8 -73 -12 -12 -5 -23 -2 -32 11 -14 18 -16 18
-26 1 -7 -12 -22 -17 -47 -16 -54 1 -123 -9 -138 -22 -7 -6 -60 -12 -118 -14
-77 -3 -116 -9 -147 -23 -34 -16 -48 -18 -66 -9 -17 8 -27 7 -35 -1 -7 -7 -25
-12 -40 -12 -15 0 -28 -3 -28 -8 0 -14 -140 -8 -149 6 -7 11 -16 10 -49 -7
-50 -25 -54 -26 -51 -3 5 49 5 49 -93 46 -69 -2 -94 1 -102 11 -19 24 -50 22
-61 -3 -5 -13 -21 -26 -35 -29 -42 -11 -113 -6 -145 11 -16 9 -37 16 -46 16
-25 0 -32 30 -12 46 10 7 34 16 53 20 19 3 42 8 50 10 8 2 28 -3 43 -11 25
-13 31 -13 50 0 12 7 34 16 49 19 40 7 46 13 41 39 -3 14 2 29 11 36 9 8 16
20 16 28 0 7 7 16 16 20 13 5 14 15 9 57 -4 28 -12 54 -17 57 -6 4 -11 18 -11
33 -1 14 -5 26 -9 26 -5 0 -8 6 -8 14 0 7 -6 19 -14 25 -14 12 -13 36 2 87 7
21 7 35 0 42 -6 6 -5 17 4 31 10 17 19 20 38 16 14 -4 27 -11 28 -16 6 -15 22
-10 22 6 0 19 9 19 32 -2 11 -9 18 -11 18 -5 0 7 10 12 21 12 12 0 32 11 45
25 13 14 27 25 31 25 4 0 19 12 32 26 20 21 31 24 57 19 18 -3 35 -1 39 4 3 6
12 8 20 4 9 -3 15 1 15 11 0 9 7 16 15 16 8 0 15 5 15 10 0 6 8 10 18 10 22 0
130 68 152 96 9 11 14 26 12 35 -2 11 7 18 29 23 17 3 35 3 40 0 20 -12 44 7
46 35 2 32 -14 41 -74 41 -17 0 -38 7 -47 15 -17 17 -92 20 -119 4z m-784
-1363 c4 -9 -4 -19 -21 -26 -75 -31 -105 -60 -62 -60 28 0 25 -19 -5 -30 -14
-5 -25 -14 -25 -20 0 -5 -8 -10 -18 -10 -10 0 -29 -13 -44 -30 -33 -38 -63
-41 -54 -6 4 16 0 30 -9 40 -17 16 -20 36 -6 36 5 0 8 7 7 16 -2 23 89 84 128
85 17 0 40 4 51 9 30 13 52 12 58 -4z"/>
<path d="M12142 6760 c0 -14 2 -19 5 -12 2 6 2 18 0 25 -3 6 -5 1 -5 -13z"/>
<path d="M8370 6759 c0 -5 5 -7 10 -4 6 3 10 8 10 11 0 2 -4 4 -10 4 -5 0 -10
-5 -10 -11z"/>
<path d="M10088 6763 c7 -3 16 -2 19 1 4 3 -2 6 -13 5 -11 0 -14 -3 -6 -6z"/>
<path d="M9973 6725 c0 -22 2 -30 4 -17 2 12 2 30 0 40 -3 9 -5 -1 -4 -23z"/>
<path d="M6831 6714 c0 -11 3 -14 6 -6 3 7 2 16 -1 19 -3 4 -6 -2 -5 -13z"/>
<path d="M12099 6673 c-13 -16 -12 -17 4 -4 9 7 17 15 17 17 0 8 -8 3 -21 -13z"/>
<path d="M7891 6654 c0 -11 3 -14 6 -6 3 7 2 16 -1 19 -3 4 -6 -2 -5 -13z"/>
<path d="M12075 6633 c-12 -27 -22 -122 -13 -117 4 3 8 23 8 45 0 22 5 49 11
61 6 11 9 22 6 24 -2 3 -8 -3 -12 -13z"/>
<path d="M9926 6602 l-19 -27 24 22 c12 12 21 24 18 27 -2 2 -13 -8 -23 -22z"/>
<path d="M6330 6599 c0 -5 5 -7 10 -4 6 3 10 8 10 11 0 2 -4 4 -10 4 -5 0 -10
-5 -10 -11z"/>
<path d="M6820 6604 c0 -5 7 -18 15 -28 8 -11 15 -16 15 -10 0 5 -7 18 -15 28
-8 11 -15 16 -15 10z"/>
<path d="M9828 6563 c6 -2 18 -2 25 0 6 3 1 5 -13 5 -14 0 -19 -2 -12 -5z"/>
<path d="M9763 6553 c9 -2 25 -2 35 0 9 3 1 5 -18 5 -19 0 -27 -2 -17 -5z"/>
<path d="M6841 6534 c0 -11 3 -14 6 -6 3 7 2 16 -1 19 -3 4 -6 -2 -5 -13z"/>
<path d="M9679 6513 c-13 -16 -12 -17 4 -4 9 7 17 15 17 17 0 8 -8 3 -21 -13z"/>
<path d="M9640 6478 c-12 -22 -12 -22 6 -6 10 10 15 20 12 24 -4 3 -12 -5 -18
-18z"/>
<path d="M6915 6470 c3 -5 11 -10 16 -10 6 0 7 5 4 10 -3 6 -11 10 -16 10 -6
0 -7 -4 -4 -10z"/>
<path d="M7000 6454 c0 -7 52 -25 57 -20 2 2 -10 8 -26 14 -17 6 -31 9 -31 6z"/>
<path d="M7932 6440 c0 -14 2 -19 5 -12 2 6 2 18 0 25 -3 6 -5 1 -5 -13z"/>
<path d="M12021 6444 c0 -11 3 -14 6 -6 3 7 2 16 -1 19 -3 4 -6 -2 -5 -13z"/>
<path d="M10520 6410 c0 -5 5 -10 11 -10 5 0 7 5 4 10 -3 6 -8 10 -11 10 -2 0
-4 -4 -4 -10z"/>
<path d="M7239 6394 c-7 -9 -22 -20 -34 -24 -14 -6 -15 -9 -4 -9 8 -1 26 10
39 24 13 14 21 25 18 25 -3 0 -12 -7 -19 -16z"/>
<path d="M9570 6400 c-12 -7 -10 -9 7 -7 12 0 19 5 17 9 -6 10 -6 10 -24 -2z"/>
<path d="M10121 6393 c7 -12 15 -20 18 -17 3 2 -3 12 -13 22 -17 16 -18 16 -5
-5z"/>
<path d="M9408 6393 c6 -2 18 -2 25 0 6 3 1 5 -13 5 -14 0 -19 -2 -12 -5z"/>
<path d="M9928 6393 c7 -3 16 -2 19 1 4 3 -2 6 -13 5 -11 0 -14 -3 -6 -6z"/>
<path d="M7138 6368 c5 -5 16 -8 23 -6 8 3 3 7 -10 11 -17 4 -21 3 -13 -5z"/>
<path d="M9349 6363 c-13 -16 -12 -17 4 -4 9 7 17 15 17 17 0 8 -8 3 -21 -13z"/>
<path d="M9659 6367 c5 -5 30 -7 57 -5 l49 3 -57 5 c-31 3 -53 1 -49 -3z"/>
<path d="M10340 6348 c0 -4 14 -8 32 -8 17 0 28 3 25 7 -10 9 -57 10 -57 1z"/>
<path d="M9270 6330 c-11 -8 -7 -9 15 -4 37 8 45 14 19 14 -10 0 -26 -5 -34
-10z"/>
<path d="M9224 6288 l-19 -23 23 19 c21 18 27 26 19 26 -2 0 -12 -10 -23 -22z"/>
<path d="M11986 6293 c-6 -14 -5 -15 5 -6 7 7 10 15 7 18 -3 3 -9 -2 -12 -12z"/>
<path d="M9119 6249 l-24 -20 28 17 c15 9 27 18 27 20 0 8 -8 4 -31 -17z"/>
<path d="M11828 6254 c-39 -21 -35 -28 5 -8 37 19 44 24 31 24 -5 -1 -21 -8
-36 -16z"/>
<path d="M10555 6250 c-4 -6 3 -10 14 -10 25 0 27 6 6 13 -8 4 -17 2 -20 -3z"/>
<path d="M10620 6230 c8 -5 20 -10 25 -10 6 0 3 5 -5 10 -8 5 -19 10 -25 10
-5 0 -3 -5 5 -10z"/>
<path d="M9076 6213 c-6 -14 -5 -15 5 -6 7 7 10 15 7 18 -3 3 -9 -2 -12 -12z"/>
<path d="M10423 6220 c-13 -5 -23 -11 -23 -14 0 -7 40 6 46 15 6 10 6 10 -23
-1z"/>
<path d="M10480 6226 c0 -2 7 -7 16 -10 8 -3 12 -2 9 4 -6 10 -25 14 -25 6z"/>
<path d="M10531 6193 c7 -12 15 -20 18 -17 3 2 -3 12 -13 22 -17 16 -18 16 -5
-5z"/>
<path d="M10698 6198 c28 -28 -6 -78 -44 -64 -8 3 -14 -1 -14 -9 0 -28 -21
-26 -48 5 -27 29 -46 32 -35 4 2 -7 -2 -23 -11 -36 -9 -12 -16 -25 -16 -29 0
-3 26 -14 58 -23 88 -27 109 -36 128 -57 15 -17 16 -24 6 -40 -15 -24 0 -26
42 -4 15 8 35 15 43 15 8 0 17 9 20 20 3 11 10 20 16 20 5 0 -5 10 -23 23 -40
26 -48 44 -23 50 10 3 1 5 -19 6 -27 1 -38 5 -38 17 0 8 -4 13 -9 9 -19 -11
-21 15 -4 50 15 31 15 37 3 45 -8 6 -22 10 -29 10 -12 0 -12 -3 -3 -12z"/>
<path d="M10288 6193 c6 -2 18 -2 25 0 6 3 1 5 -13 5 -14 0 -19 -2 -12 -5z"/>
<path d="M10338 6193 c6 -2 18 -2 25 0 6 3 1 5 -13 5 -14 0 -19 -2 -12 -5z"/>
<path d="M11729 6143 c-13 -16 -12 -17 4 -4 9 7 17 15 17 17 0 8 -8 3 -21 -13z"/>
<path d="M8993 6100 c-23 -22 -39 -40 -35 -40 5 0 26 18 47 40 50 51 43 51
-12 0z"/>
<path d="M11689 6103 c-13 -16 -12 -17 4 -4 9 7 17 15 17 17 0 8 -8 3 -21 -13z"/>
<path d="M10828 6083 c7 -3 16 -2 19 1 4 3 -2 6 -13 5 -11 0 -14 -3 -6 -6z"/>
<path d="M10870 6086 c0 -2 8 -10 18 -17 15 -13 16 -12 3 4 -13 16 -21 21 -21
13z"/>
<path d="M11520 6055 c40 -48 43 -51 32 -30 -6 11 -21 29 -34 40 -22 19 -22
19 2 -10z"/>
<path d="M11609 6043 l-34 -38 38 34 c20 19 37 36 37 38 0 8 -8 0 -41 -34z"/>
<path d="M11429 6046 c-8 -18 -8 -35 -1 -63 l11 -38 -5 42 c-3 23 -1 51 6 62
6 12 8 21 5 21 -3 0 -10 -11 -16 -24z"/>
<path d="M8918 6053 c7 -3 16 -2 19 1 4 3 -2 6 -13 5 -11 0 -14 -3 -6 -6z"/>
<path d="M6730 6030 c6 -11 13 -20 16 -20 2 0 0 9 -6 20 -6 11 -13 20 -16 20
-2 0 0 -9 6 -20z"/>
<path d="M6645 6030 c-3 -6 1 -7 9 -4 18 7 21 14 7 14 -6 0 -13 -4 -16 -10z"/>
<path d="M8862 6028 c-14 -14 -16 -64 -4 -72 5 -3 6 8 4 25 -2 16 1 36 8 44
15 18 9 20 -8 3z"/>
<path d="M9820 6023 c-19 -8 -39 -21 -43 -29 -4 -8 -15 -14 -22 -14 -8 0 -15
-4 -15 -10 0 -5 4 -10 9 -10 19 0 71 -52 71 -71 0 -10 7 -19 15 -19 8 0 22
-11 32 -25 10 -14 26 -35 36 -47 9 -11 17 -25 17 -30 0 -4 11 -8 25 -8 15 0
25 6 25 15 0 8 9 19 19 25 26 13 104 13 118 -1 13 -13 61 -2 60 14 -1 50 3 57
28 51 36 -9 31 8 -18 59 -36 38 -50 46 -97 53 -30 4 -63 7 -73 5 -10 -1 -21 7
-27 23 -5 14 -15 26 -22 27 -83 7 -108 5 -138 -8z"/>
<path d="M10917 6029 c7 -7 15 -10 18 -7 3 3 -2 9 -12 12 -14 6 -15 5 -6 -5z"/>
<path d="M6609 6003 c-13 -16 -12 -17 4 -4 9 7 17 15 17 17 0 8 -8 3 -21 -13z"/>
<path d="M6238 5983 c6 -2 18 -2 25 0 6 3 1 5 -13 5 -14 0 -19 -2 -12 -5z"/>
<path d="M6760 5970 c6 -11 13 -20 16 -20 2 0 0 9 -6 20 -6 11 -13 20 -16 20
-2 0 0 -9 6 -20z"/>
<path d="M6201 5957 c-13 -21 -12 -21 5 -5 10 10 16 20 13 22 -3 3 -11 -5 -18
-17z"/>
<path d="M11025 5950 c9 -16 18 -30 21 -30 2 0 -2 14 -11 30 -9 17 -18 30 -21
30 -2 0 2 -13 11 -30z"/>
<path d="M6508 5963 c7 -3 16 -2 19 1 4 3 -2 6 -13 5 -11 0 -14 -3 -6 -6z"/>
<path d="M6448 5938 c-13 -13 -17 -18 -8 -12 8 6 24 16 35 22 11 6 15 12 8 12
-7 0 -22 -10 -35 -22z"/>
<path d="M6791 5923 c7 -12 15 -20 18 -17 3 2 -3 12 -13 22 -17 16 -18 16 -5
-5z"/>
<path d="M11420 5934 c0 -5 7 -18 15 -28 8 -11 15 -16 15 -10 0 5 -7 18 -15
28 -8 11 -15 16 -15 10z"/>
<path d="M6100 5879 c-22 -18 -22 -19 -3 -10 12 6 25 16 28 21 9 15 3 12 -25
-11z"/>
<path d="M6370 5875 c13 -14 26 -25 28 -25 3 0 -5 11 -18 25 -13 14 -26 25
-28 25 -3 0 5 -11 18 -25z"/>
<path d="M11146 5877 c3 -10 9 -15 12 -12 3 3 0 11 -7 18 -10 9 -11 8 -5 -6z"/>
<path d="M6019 5843 c-13 -16 -12 -17 4 -4 9 7 17 15 17 17 0 8 -8 3 -21 -13z"/>
<path d="M6950 5857 c0 -2 15 -16 33 -33 l32 -29 -29 33 c-28 30 -36 37 -36
29z"/>
<path d="M8819 5833 c-13 -16 -12 -17 4 -4 16 13 21 21 13 21 -2 0 -10 -8 -17
-17z"/>
<path d="M5975 5810 c-10 -11 -16 -22 -14 -24 2 -2 12 7 22 20 22 29 17 32 -8
4z"/>
<path d="M11032 5801 c-18 -11 7 -21 54 -21 24 0 34 5 34 15 0 17 -65 21 -88
6z"/>
<path d="M11160 5806 c0 -2 8 -10 18 -17 15 -13 16 -12 3 4 -13 16 -21 21 -21
13z"/>
<path d="M7020 5786 c0 -2 8 -10 18 -17 15 -13 16 -12 3 4 -13 16 -21 21 -21
13z"/>
<path d="M11435 5779 c-4 -6 -5 -12 -2 -15 2 -3 7 2 10 11 7 17 1 20 -8 4z"/>
<path d="M7280 5760 c-18 -12 -2 -12 25 0 13 6 15 9 5 9 -8 0 -22 -4 -30 -9z"/>
<path d="M11208 5743 c5 -21 7 -23 10 -9 2 10 0 22 -6 28 -6 6 -7 0 -4 -19z"/>
<path d="M7158 5743 c6 -2 18 -2 25 0 6 3 1 5 -13 5 -14 0 -19 -2 -12 -5z"/>
<path d="M6234 5718 l-19 -23 23 19 c21 18 27 26 19 26 -2 0 -12 -10 -23 -22z"/>
<path d="M7118 5733 c7 -3 16 -2 19 1 4 3 -2 6 -13 5 -11 0 -14 -3 -6 -6z"/>
<path d="M5693 5723 c9 -2 25 -2 35 0 9 3 1 5 -18 5 -19 0 -27 -2 -17 -5z"/>
<path d="M5626 5695 c-11 -8 -15 -15 -9 -15 6 0 16 7 23 15 16 19 11 19 -14 0z"/>
<path d="M9561 5694 c0 -11 3 -14 6 -6 3 7 2 16 -1 19 -3 4 -6 -2 -5 -13z"/>
<path d="M11309 5693 c-13 -16 -12 -17 4 -4 9 7 17 15 17 17 0 8 -8 3 -21 -13z"/>
<path d="M5568 5683 c6 -2 18 -2 25 0 6 3 1 5 -13 5 -14 0 -19 -2 -12 -5z"/>
<path d="M6199 5673 c-13 -16 -12 -17 4 -4 9 7 17 15 17 17 0 8 -8 3 -21 -13z"/>
<path d="M11270 5670 c-9 -6 -10 -10 -3 -10 6 0 15 5 18 10 8 12 4 12 -15 0z"/>
<path d="M11227 5656 c-4 -10 -1 -13 8 -9 8 3 12 9 9 14 -7 12 -11 11 -17 -5z"/>
<path d="M5484 5638 l-19 -23 23 19 c21 18 27 26 19 26 -2 0 -12 -10 -23 -22z"/>
<path d="M6752 5633 c-8 -3 -11 -15 -6 -38 8 -42 -9 -52 -42 -26 -15 12 -30
21 -35 21 -16 0 -38 -46 -32 -68 7 -28 24 -28 49 -1 14 16 27 20 54 16 38 -6
72 3 70 18 0 6 10 11 24 13 18 2 25 10 28 32 4 25 1 29 -24 32 -15 3 -32 0
-37 -5 -7 -7 -15 -7 -23 0 -7 6 -19 8 -26 6z"/>
<path d="M11159 5599 l-44 -41 48 38 c26 21 47 40 47 41 0 8 -11 0 -51 -38z"/>
<path d="M5449 5593 c-13 -16 -12 -17 4 -4 9 7 17 15 17 17 0 8 -8 3 -21 -13z"/>
<path d="M9628 5562 c15 -15 29 -26 31 -25 6 4 -41 53 -50 53 -4 0 4 -13 19
-28z"/>
<path d="M9230 5573 c-8 -2 -21 -6 -28 -9 -9 -3 -9 -8 3 -21 9 -10 26 -31 39
-47 l23 -30 25 20 c13 10 24 24 22 29 -1 6 -5 22 -8 38 -5 22 -12 27 -34 26
-15 0 -34 -3 -42 -6z"/>
<path d="M8490 5560 c0 -6 -10 -15 -22 -19 -18 -7 -13 -9 23 -8 40 0 46 3 41
19 -5 19 -42 26 -42 8z"/>
<path d="M6964 5482 c-33 -40 -58 -81 -52 -87 8 -8 55 41 62 63 4 12 16 27 27
32 21 12 26 30 7 30 -7 0 -27 -17 -44 -38z"/>
<path d="M9680 5516 c0 -2 8 -10 18 -17 15 -13 16 -12 3 4 -13 16 -21 21 -21
13z"/>
<path d="M11089 5503 c-13 -16 -12 -17 4 -4 9 7 17 15 17 17 0 8 -8 3 -21 -13z"/>
<path d="M9730 5486 c0 -2 16 -13 36 -25 19 -12 32 -16 29 -11 -7 11 -65 43
-65 36z"/>
<path d="M9922 5464 c-19 -9 -20 -13 -7 -17 19 -8 76 3 70 13 -9 14 -40 16
-63 4z"/>
<path d="M9005 5460 c3 -5 8 -10 11 -10 2 0 4 5 4 10 0 6 -5 10 -11 10 -5 0
-7 -4 -4 -10z"/>
<path d="M10388 5443 c6 -2 18 -2 25 0 6 3 1 5 -13 5 -14 0 -19 -2 -12 -5z"/>
<path d="M10848 5443 c6 -2 18 -2 25 0 6 3 1 5 -13 5 -14 0 -19 -2 -12 -5z"/>
<path d="M10340 5430 c-8 -5 -10 -10 -5 -10 6 0 17 5 25 10 8 5 11 10 5 10 -5
0 -17 -5 -25 -10z"/>
<path d="M10431 5436 c2 -2 24 -6 49 -9 30 -4 38 -3 25 3 -19 8 -83 14 -74 6z"/>
<path d="M10778 5433 c12 -2 30 -2 40 0 9 3 -1 5 -23 4 -22 0 -30 -2 -17 -4z"/>
<path d="M10728 5423 c7 -3 16 -2 19 1 4 3 -2 6 -13 5 -11 0 -14 -3 -6 -6z"/>
<path d="M9334 5405 c8 -8 22 -15 32 -15 13 0 14 3 4 15 -7 8 -21 15 -32 15
-17 0 -18 -2 -4 -15z"/>
<path d="M10245 5324 c-30 -27 -32 -31 -9 -16 28 19 62 53 53 52 -2 -1 -22
-17 -44 -36z"/>
<path d="M8740 5336 c0 -2 8 -10 18 -17 15 -13 16 -12 3 4 -13 16 -21 21 -21
13z"/>
<path d="M9810 5324 c0 -5 7 -18 15 -28 8 -11 15 -16 15 -10 0 5 -7 18 -15 28
-8 11 -15 16 -15 10z"/>
<path d="M8876 5265 c21 -19 43 -34 47 -35 5 0 -10 16 -33 35 -54 45 -65 46
-14 0z"/>
<path d="M10195 5269 c-4 -6 -5 -12 -2 -15 2 -3 7 2 10 11 7 17 1 20 -8 4z"/>
<path d="M9870 5239 c0 -3 11 -20 25 -39 14 -19 25 -30 25 -24 -1 10 -50 73
-50 63z"/>
<path d="M10135 5153 c-21 -27 -28 -39 -16 -28 23 19 66 75 59 75 -2 0 -21
-21 -43 -47z"/>
<path d="M9946 5141 c10 -10 80 -24 72 -15 -4 3 -23 10 -43 14 -21 5 -34 5
-29 1z"/>
<path d="M10065 5100 c-16 -7 -17 -9 -3 -9 9 -1 20 4 23 9 7 11 7 11 -20 0z"/>
<path d="M8926 5085 c-9 -26 -7 -32 5 -12 6 10 9 21 6 23 -2 3 -7 -2 -11 -11z"/>
<path d="M6615 5040 c-3 -5 -1 -10 4 -10 6 0 11 5 11 10 0 6 -2 10 -4 10 -3 0
-8 -4 -11 -10z"/>
<path d="M8889 5023 l-24 -28 28 24 c15 14 27 26 27 28 0 8 -8 1 -31 -24z"/>
<path d="M6148 4983 c6 -2 18 -2 25 0 6 3 1 5 -13 5 -14 0 -19 -2 -12 -5z"/>
<path d="M8777 4920 c-19 -22 -32 -40 -28 -40 4 0 22 18 40 40 17 22 30 40 28
40 -2 0 -20 -18 -40 -40z"/>
<path d="M8102 4900 l-33 -27 28 -6 c34 -7 46 3 41 36 l-3 25 -33 -28z"/>
<path d="M6126 4912 c-3 -6 -1 -14 5 -17 14 -9 20 -2 10 14 -6 8 -11 9 -15 3z"/>
<path d="M5895 4871 c-3 -5 -1 -12 5 -16 5 -3 10 1 10 9 0 18 -6 21 -15 7z"/>
<path d="M8705 4870 c-3 -6 1 -7 9 -4 18 7 21 14 7 14 -6 0 -13 -4 -16 -10z"/>
<path d="M8664 4838 l-19 -23 23 19 c12 11 22 21 22 23 0 8 -8 2 -26 -19z"/>
<path d="M8609 4763 c-13 -16 -12 -17 4 -4 16 13 21 21 13 21 -2 0 -10 -8 -17
-17z"/>
<path d="M6785 4740 c-3 -5 1 -10 9 -10 9 0 16 5 16 10 0 6 -4 10 -9 10 -6 0
-13 -4 -16 -10z"/>
<path d="M6712 4710 c0 -19 2 -27 5 -17 2 9 2 25 0 35 -3 9 -5 1 -5 -18z"/>
<path d="M8586 4725 c-9 -26 -7 -32 5 -12 6 10 9 21 6 23 -2 3 -7 -2 -11 -11z"/>
<path d="M5998 4713 c6 -2 18 -2 25 0 6 3 1 5 -13 5 -14 0 -19 -2 -12 -5z"/>
<path d="M6692 4650 c-7 -11 -8 -20 -3 -20 9 0 24 30 18 36 -1 2 -8 -6 -15
-16z"/>
<path d="M8561 4654 c0 -11 3 -14 6 -6 3 7 2 16 -1 19 -3 4 -6 -2 -5 -13z"/>
<path d="M6100 4656 c0 -3 9 -10 20 -16 11 -6 20 -8 20 -6 0 3 -9 10 -20 16
-11 6 -20 8 -20 6z"/>
<path d="M8519 4593 l-24 -28 28 24 c25 23 32 31 24 31 -2 0 -14 -12 -28 -27z"/>
<path d="M5302 4565 c-13 -7 -30 -22 -38 -33 -12 -18 -12 -20 5 -15 13 3 23
-2 31 -16 6 -12 15 -19 20 -16 21 13 21 -19 -1 -36 -27 -21 -13 -25 26 -7 30
13 33 34 5 41 -25 6 -27 53 -3 79 15 17 15 18 -3 17 -10 -1 -29 -7 -42 -14z"/>
<path d="M6190 4566 c0 -2 8 -10 18 -17 15 -13 16 -12 3 4 -13 16 -21 21 -21
13z"/>
<path d="M6241 4482 c8 -25 9 -36 0 -45 -19 -19 -12 -28 7 -9 15 13 16 22 8
42 -15 39 -28 48 -15 12z"/>
<path d="M6661 4494 c0 -11 3 -14 6 -6 3 7 2 16 -1 19 -3 4 -6 -2 -5 -13z"/>
<path d="M6400 4436 c0 -2 7 -7 16 -10 8 -3 12 -2 9 4 -6 10 -25 14 -25 6z"/>
<path d="M6609 4413 c-13 -16 -12 -17 4 -4 9 7 17 15 17 17 0 8 -8 3 -21 -13z"/>
<path d="M8462 4399 c-18 -16 -29 -29 -25 -29 11 1 66 50 62 55 -2 2 -19 -10
-37 -26z"/>
<path d="M6433 4400 c2 -8 12 -16 23 -17 13 -2 15 -1 4 4 -8 3 -19 11 -23 17
-6 7 -7 6 -4 -4z"/>
<path d="M6500 4366 c0 -2 8 -10 18 -17 15 -13 16 -12 3 4 -13 16 -21 21 -21
13z"/>
<path d="M6169 4343 c-13 -16 -12 -17 4 -4 16 13 21 21 13 21 -2 0 -10 -8 -17
-17z"/>
<path d="M8376 4343 c-6 -14 -5 -15 5 -6 7 7 10 15 7 18 -3 3 -9 -2 -12 -12z"/>
<path d="M6544 4332 c-21 -13 -54 -77 -54 -102 0 -14 5 -32 10 -40 8 -11 9 -8
4 13 -9 37 1 70 32 106 26 32 28 37 8 23z"/>
<path d="M6137 4323 c-9 -9 -9 -41 1 -46 4 -3 7 8 7 24 0 16 0 29 -1 29 0 0
-4 -3 -7 -7z"/>
<path d="M8356 4311 c-3 -4 4 -17 17 -27 22 -19 22 -19 4 2 -9 11 -14 24 -10
27 3 4 4 7 0 7 -3 0 -8 -4 -11 -9z"/>
<path d="M8288 4273 c7 -3 16 -2 19 1 4 3 -2 6 -13 5 -11 0 -14 -3 -6 -6z"/>
<path d="M8238 4263 c6 -2 18 -2 25 0 6 3 1 5 -13 5 -14 0 -19 -2 -12 -5z"/>
<path d="M6135 4239 c-4 -6 -5 -12 -2 -15 2 -3 7 2 10 11 7 17 1 20 -8 4z"/>
<path d="M8400 4245 c0 -5 5 -17 10 -25 5 -8 10 -10 10 -5 0 6 -5 17 -10 25
-5 8 -10 11 -10 5z"/>
<path d="M8185 4209 c-4 -6 -5 -12 -2 -15 2 -3 7 2 10 11 7 17 1 20 -8 4z"/>
<path d="M6060 4160 c-8 -5 -12 -12 -9 -15 4 -3 12 1 19 10 14 17 11 19 -10 5z"/>
<path d="M8104 4098 l-19 -23 23 19 c12 11 22 21 22 23 0 8 -8 2 -26 -19z"/>
<path d="M8441 4088 c10 -22 9 -31 -2 -45 -13 -16 -12 -17 4 -4 21 17 22 31 2
57 -14 18 -14 17 -4 -8z"/>
<path d="M7742 4073 c-15 -16 -19 -20 -7 -11 11 9 31 21 45 27 17 7 20 10 8
10 -10 1 -30 -11 -46 -26z"/>
<path d="M7837 4089 c7 -7 15 -10 18 -7 3 3 -2 9 -12 12 -14 6 -15 5 -6 -5z"/>
<path d="M7918 4063 c7 -3 16 -2 19 1 4 3 -2 6 -13 5 -11 0 -14 -3 -6 -6z"/>
<path d="M6062 4035 c0 -16 2 -22 5 -12 2 9 2 23 0 30 -3 6 -5 -1 -5 -18z"/>
<path d="M6560 4013 c0 -13 5 -23 10 -23 13 0 13 11 0 30 -8 12 -10 11 -10 -7z"/>
<path d="M6045 3989 c-4 -6 -5 -12 -2 -15 2 -3 7 2 10 11 7 17 1 20 -8 4z"/>
<path d="M6462 3974 c-7 -8 -8 -14 -3 -14 10 0 25 19 20 25 -2 1 -10 -3 -17
-11z"/>
<path d="M6607 3971 c-4 -17 -3 -21 5 -13 5 5 8 16 6 23 -3 8 -7 3 -11 -10z"/>
<path d="M7640 3955 c-19 -14 -43 -26 -54 -26 -18 -1 -19 -2 -3 -6 15 -4 97
41 97 53 0 7 -6 4 -40 -21z"/>
<path d="M6235 3960 c-3 -5 0 -7 8 -4 8 3 18 1 22 -5 3 -6 14 -11 23 -11 11 0
6 6 -12 15 -34 18 -33 18 -41 5z"/>
<path d="M6015 3939 c-4 -6 -5 -12 -2 -15 2 -3 7 2 10 11 7 17 1 20 -8 4z"/>
<path d="M6169 3933 c-12 -16 -12 -17 1 -7 8 7 24 14 35 17 19 4 19 5 -1 6
-12 0 -28 -7 -35 -16z"/>
<path d="M6314 3939 c-4 -8 -3 -10 4 -5 6 4 20 3 29 -2 10 -5 29 -5 43 -1 24
7 24 7 -5 7 -16 0 -37 2 -46 6 -10 4 -20 2 -25 -5z"/>
<path d="M6615 3920 c10 -11 20 -20 22 -20 2 0 -2 9 -9 20 -7 11 -17 20 -22
20 -5 0 -1 -9 9 -20z"/>
<path d="M8470 3926 c0 -2 8 -10 18 -17 15 -13 16 -12 3 4 -13 16 -21 21 -21
13z"/>
<path d="M6094 3898 l-19 -23 23 19 c12 11 22 21 22 23 0 8 -8 2 -26 -19z"/>
<path d="M7468 3913 c18 -2 45 -2 60 0 15 2 0 4 -33 4 -33 0 -45 -2 -27 -4z"/>
<path d="M7394 3901 c-5 -5 -20 -11 -34 -14 l-25 -4 25 -1 c26 -2 58 13 49 22
-3 3 -10 2 -15 -3z"/>
<path d="M5979 3863 l-24 -28 25 21 c14 12 32 24 40 27 13 5 13 6 -1 6 -8 1
-26 -11 -40 -26z"/>
<path d="M7258 3873 c7 -3 16 -2 19 1 4 3 -2 6 -13 5 -11 0 -14 -3 -6 -6z"/>
<path d="M8515 3862 c4 -13 1 -29 -5 -37 -15 -19 -3 -20 15 -2 10 11 10 18 -2
38 -13 23 -14 23 -8 1z"/>
<path d="M7215 3860 c-3 -6 1 -7 9 -4 18 7 21 14 7 14 -6 0 -13 -4 -16 -10z"/>
<path d="M11601 3861 c-8 -5 5 -7 35 -4 68 6 77 11 24 12 -25 0 -51 -3 -59 -8z"/>
<path d="M11795 3790 c33 -33 62 -60 64 -60 3 0 -21 27 -54 60 -33 33 -62 60
-64 60 -3 0 21 -27 54 -60z"/>
<path d="M5929 3823 c-13 -16 -12 -17 4 -4 16 13 21 21 13 21 -2 0 -10 -8 -17
-17z"/>
<path d="M6754 3825 c11 -8 24 -15 30 -15 5 0 1 7 -10 15 -10 8 -23 14 -29 14
-5 0 -1 -6 9 -14z"/>
<path d="M8976 3825 c-11 -8 -15 -15 -9 -15 6 0 16 7 23 15 16 19 11 19 -14 0z"/>
<path d="M9105 3820 c10 -11 20 -20 23 -20 3 0 -3 9 -13 20 -10 11 -20 20 -23
20 -3 0 3 -9 13 -20z"/>
<path d="M11515 3825 c-16 -7 -23 -14 -15 -14 8 0 26 6 40 14 32 18 14 18 -25
0z"/>
<path d="M12599 3823 c-13 -16 -12 -17 4 -4 16 13 21 21 13 21 -2 0 -10 -8
-17 -17z"/>
<path d="M6826 3797 c2 -7 14 -19 27 -26 21 -13 21 -12 -2 13 -27 29 -33 32
-25 13z"/>
<path d="M8910 3789 c-17 -13 -18 -17 -5 -10 33 17 51 31 40 31 -5 0 -21 -10
-35 -21z"/>
<path d="M11394 3794 c-18 -14 -18 -14 6 -3 31 14 36 19 24 19 -6 0 -19 -7
-30 -16z"/>
<path d="M8546 3787 c3 -10 9 -15 12 -12 3 3 0 11 -7 18 -10 9 -11 8 -5 -6z"/>
<path d="M11139 3783 c-13 -16 -12 -17 4 -4 16 13 21 21 13 21 -2 0 -10 -8
-17 -17z"/>
<path d="M12555 3790 c-3 -6 1 -7 9 -4 18 7 21 14 7 14 -6 0 -13 -4 -16 -10z"/>
<path d="M8460 3757 c-19 -18 -42 -41 -50 -52 -8 -11 9 2 38 30 47 45 57 56
50 55 -2 -1 -19 -15 -38 -33z"/>
<path d="M11088 3763 c7 -3 16 -2 19 1 4 3 -2 6 -13 5 -11 0 -14 -3 -6 -6z"/>
<path d="M11323 3763 c9 -2 23 -2 30 0 6 3 -1 5 -18 5 -16 0 -22 -2 -12 -5z"/>
<path d="M12494 3748 l-19 -23 23 19 c21 18 27 26 19 26 -2 0 -12 -10 -23 -22z"/>
<path d="M7108 3725 c-21 -19 -32 -35 -25 -34 6 0 25 16 40 35 36 43 32 43
-15 -1z"/>
<path d="M5876 3733 c-6 -14 -5 -15 5 -6 7 7 10 15 7 18 -3 3 -9 -2 -12 -12z"/>
<path d="M9195 3730 c10 -11 20 -20 23 -20 3 0 -3 9 -13 20 -10 11 -20 20 -23
20 -3 0 3 -9 13 -20z"/>
<path d="M4622 3714 c9 -9 21 -15 27 -13 6 2 -2 10 -17 17 -25 11 -25 11 -10
-4z"/>
<path d="M8789 3703 l-24 -28 30 25 c17 14 32 26 34 28 2 1 0 2 -6 2 -5 0 -20
-12 -34 -27z"/>
<path d="M10989 3703 l-24 -28 28 24 c15 14 27 26 27 28 0 8 -8 1 -31 -24z"/>
<path d="M4706 3712 c-3 -5 8 -6 25 -4 16 2 29 6 29 8 0 8 -49 4 -54 -4z"/>
<path d="M4785 3710 c-12 -5 1 -6 35 -3 30 3 57 7 59 9 9 8 -75 2 -94 -6z"/>
<path d="M7240 3716 c0 -2 15 -6 34 -8 19 -2 32 0 30 4 -5 8 -64 12 -64 4z"/>
<path d="M11887 3689 c12 -12 24 -21 27 -18 2 2 -8 13 -22 23 l-27 19 22 -24z"/>
<path d="M5473 3680 c-34 -14 -28 -21 7 -8 17 6 45 8 63 4 23 -4 28 -3 17 4
-18 12 -57 12 -87 0z"/>
<path d="M5593 3663 c9 -2 23 -2 30 0 6 3 -1 5 -18 5 -16 0 -22 -2 -12 -5z"/>
<path d="M10930 3639 c-35 -31 -35 -31 -3 -9 18 11 35 25 38 30 10 16 2 11
-35 -21z"/>
<path d="M8359 3643 c-13 -16 -12 -17 4 -4 16 13 21 21 13 21 -2 0 -10 -8 -17
-17z"/>
<path d="M11975 3641 c19 -22 66 -51 82 -51 4 1 -5 8 -22 17 -16 8 -41 25 -55
37 l-25 21 20 -24z"/>
<path d="M5397 3625 c-20 -14 -37 -28 -37 -31 0 -2 18 8 40 22 35 23 47 34 37
34 -1 0 -19 -11 -40 -25z"/>
<path d="M5708 3643 c7 -3 16 -2 19 1 4 3 -2 6 -13 5 -11 0 -14 -3 -6 -6z"/>
<path d="M5011 3623 c7 -12 15 -20 18 -17 3 2 -3 12 -13 22 -17 16 -18 16 -5
-5z"/>
<path d="M9260 3621 c0 -6 4 -13 10 -16 6 -3 7 1 4 9 -7 18 -14 21 -14 7z"/>
<path d="M5030 3586 c0 -2 8 -10 18 -17 15 -13 16 -12 3 4 -13 16 -21 21 -21
13z"/>
<path d="M10880 3580 c-9 -6 -10 -10 -3 -10 6 0 15 5 18 10 8 12 4 12 -15 0z"/>
<path d="M12078 3583 c6 -2 18 -2 25 0 6 3 1 5 -13 5 -14 0 -19 -2 -12 -5z"/>
<path d="M7430 3576 c0 -2 8 -10 18 -17 15 -13 16 -12 3 4 -13 16 -21 21 -21
13z"/>
<path d="M9320 3570 c8 -5 24 -10 34 -10 26 0 18 6 -19 14 -22 5 -26 4 -15 -4z"/>
<path d="M12150 3576 c0 -2 8 -10 18 -17 15 -13 16 -12 3 4 -13 16 -21 21 -21
13z"/>
<path d="M9603 3563 c9 -2 25 -2 35 0 9 3 1 5 -18 5 -19 0 -27 -2 -17 -5z"/>
<path d="M10842 3558 c-15 -15 -16 -35 -2 -43 6 -3 7 1 4 10 -4 8 -1 22 6 30
15 18 9 20 -8 3z"/>
<path d="M12278 3563 c7 -3 16 -2 19 1 4 3 -2 6 -13 5 -11 0 -14 -3 -6 -6z"/>
<path d="M9388 3553 c7 -3 16 -2 19 1 4 3 -2 6 -13 5 -11 0 -14 -3 -6 -6z"/>
<path d="M9558 3553 c7 -3 16 -2 19 1 4 3 -2 6 -13 5 -11 0 -14 -3 -6 -6z"/>
<path d="M5075 3530 c10 -11 20 -20 23 -20 3 0 -3 9 -13 20 -10 11 -20 20 -23
20 -3 0 3 -9 13 -20z"/>
<path d="M7467 3529 c7 -7 15 -10 18 -7 3 3 -2 9 -12 12 -14 6 -15 5 -6 -5z"/>
<path d="M7505 3486 c10 -14 19 -26 22 -26 7 0 -17 39 -28 46 -6 3 -3 -5 6
-20z"/>
<path d="M5130 3496 c0 -2 9 -6 20 -9 11 -3 18 -1 14 4 -5 9 -34 13 -34 5z"/>
<path d="M11290 3484 c-14 -7 -74 -16 -133 -20 -85 -6 -110 -11 -123 -25 -11
-13 -25 -17 -40 -13 -17 4 -30 -1 -47 -20 -25 -26 -47 -34 -47 -16 0 20 -47
10 -70 -15 -28 -30 -40 -32 -40 -5 0 11 -6 20 -14 20 -7 0 -25 -9 -39 -20 -14
-11 -29 -20 -34 -20 -5 0 -24 -16 -43 -35 -19 -19 -42 -35 -52 -35 -30 0 -21
-20 31 -72 46 -45 51 -48 73 -37 48 26 167 27 186 2 11 -16 10 -19 -10 -24
-17 -4 -22 -11 -20 -27 2 -15 -2 -22 -15 -24 -76 -6 -102 -6 -127 4 -24 10
-31 9 -41 -5 -7 -9 -20 -17 -29 -17 -9 0 -19 -7 -23 -16 -4 -10 -13 -14 -28
-10 -32 8 -80 -9 -124 -43 -45 -36 -85 -40 -143 -14 -41 18 -46 27 -23 40 16
10 32 72 19 74 -5 1 -19 3 -31 4 -11 1 -36 11 -55 23 -23 15 -38 18 -50 11
-19 -11 -44 -3 -51 15 -6 16 115 86 147 86 11 0 27 4 35 9 10 6 3 12 -25 21
-28 10 -39 10 -42 1 -5 -15 -80 -14 -138 3 -27 8 -71 18 -99 23 -47 8 -50 10
-50 38 0 27 -3 30 -30 29 -70 -2 -85 -5 -85 -16 0 -18 -53 -78 -68 -78 -7 0
-12 -6 -12 -14 0 -8 -21 -25 -47 -38 -27 -15 -48 -33 -49 -44 -2 -10 -10 -42
-19 -70 -16 -50 -18 -52 -59 -58 -60 -9 -130 -75 -123 -114 3 -15 1 -35 -5
-45 -5 -11 -11 -33 -11 -51 -2 -28 -5 -31 -39 -34 -42 -4 -78 -39 -78 -78 0
-12 -6 -25 -12 -27 -10 -4 -10 -6 0 -6 20 -2 14 -21 -7 -21 -28 0 -36 -18 -17
-39 9 -10 16 -22 16 -27 0 -5 9 -15 21 -22 15 -10 20 -21 16 -38 -8 -42 79
-97 173 -110 8 -1 49 -7 91 -12 41 -6 91 -9 110 -6 19 3 69 -1 111 -9 74 -13
78 -13 95 6 10 10 17 21 15 24 -2 3 23 17 55 31 32 14 76 33 99 43 22 11 47
19 55 19 8 0 39 9 69 19 48 17 71 18 185 12 116 -6 133 -5 153 11 19 14 27 15
43 5 12 -7 17 -18 13 -29 -9 -29 56 -55 102 -40 43 13 61 7 70 -21 4 -12 16
-31 27 -41 16 -16 23 -17 38 -8 25 16 48 15 84 -4 46 -24 105 -43 105 -33 0
14 36 10 49 -5 6 -7 34 -16 61 -18 28 -3 60 -13 73 -24 12 -10 16 -12 10 -4
-19 20 -16 27 13 34 57 15 124 16 186 3 58 -12 69 -12 119 5 29 10 66 23 80
27 44 15 83 39 112 69 31 34 32 43 13 92 -7 19 -19 50 -26 68 -9 24 -20 35
-42 39 -31 6 -53 36 -42 56 5 9 4 9 -5 1 -15 -14 -131 5 -131 22 0 7 -16 18
-35 25 -19 7 -35 17 -35 21 0 4 -4 8 -10 8 -10 0 -24 10 -80 61 -16 14 -42 32
-57 39 -16 8 -35 20 -43 27 -9 6 -37 17 -63 23 -27 6 -58 19 -69 30 -12 11
-34 20 -49 20 -35 0 -79 19 -79 35 0 14 -31 29 -89 45 -43 11 -54 26 -24 32
10 2 18 12 18 23 0 17 5 19 35 16 79 -10 95 -7 98 17 2 13 14 28 26 33 12 6
26 20 31 32 6 12 22 28 38 35 40 19 34 38 -10 33 -13 -2 -53 46 -53 64 0 9 11
12 39 8 22 -3 41 -1 45 5 4 6 13 9 20 6 7 -3 16 2 19 10 4 9 17 16 29 16 33 0
108 33 108 48 0 15 -17 14 -50 -4z"/>
<path d="M5287 3465 c-15 -14 -24 -25 -19 -25 5 0 19 11 32 25 30 32 23 32
-13 0z"/>
<path d="M8409 3458 c4 -28 6 -29 9 -9 2 13 0 27 -5 32 -6 6 -7 -3 -4 -23z"/>
<path d="M5180 3465 c0 -5 5 -17 10 -25 5 -8 10 -10 10 -5 0 6 -5 17 -10 25
-5 8 -10 11 -10 5z"/>
<path d="M9710 3467 c0 -2 15 -14 33 -27 20 -15 27 -17 18 -6 -13 16 -51 41
-51 33z"/>
<path d="M10842 3430 c0 -14 2 -19 5 -12 2 6 2 18 0 25 -3 6 -5 1 -5 -13z"/>
<path d="M7545 3404 c0 -13 4 -24 8 -24 5 0 6 -10 3 -22 l-6 -23 11 22 c6 12
21 24 33 26 16 3 15 5 -6 6 -17 0 -28 7 -28 15 0 8 -3 17 -7 19 -5 3 -8 -6 -8
-19z"/>
<path d="M5220 3384 c0 -10 5 -26 10 -34 8 -11 9 -7 4 15 -8 37 -14 45 -14 19z"/>
<path d="M7628 3373 c7 -3 16 -2 19 1 4 3 -2 6 -13 5 -11 0 -14 -3 -6 -6z"/>
<path d="M7260 3349 c0 -5 5 -7 10 -4 6 3 10 8 10 11 0 2 -4 4 -10 4 -5 0 -10
-5 -10 -11z"/>
<path d="M7710 3346 c0 -2 8 -10 18 -17 15 -13 16 -12 3 4 -13 16 -21 21 -21
13z"/>
<path d="M8329 3333 c-13 -16 -12 -17 4 -4 16 13 21 21 13 21 -2 0 -10 -8 -17
-17z"/>
<path d="M4170 3281 c0 -6 4 -13 10 -16 6 -3 7 1 4 9 -7 18 -14 21 -14 7z"/>
<path d="M8258 3283 c7 -3 16 -2 19 1 4 3 -2 6 -13 5 -11 0 -14 -3 -6 -6z"/>
<path d="M5258 3263 c5 -10 7 -25 5 -33 -4 -13 -3 -13 6 -1 9 14 -2 51 -15 51
-2 0 -1 -8 4 -17z"/>
<path d="M7620 3205 c30 -30 57 -55 59 -55 3 0 -19 25 -49 55 -30 30 -57 55
-59 55 -3 0 19 -25 49 -55z"/>
<path d="M7979 3225 c18 -8 38 -15 45 -15 6 1 -4 7 -23 15 -18 8 -38 15 -45
15 -6 -1 4 -7 23 -15z"/>
<path d="M6723 3218 c1 -6 -11 -15 -28 -18 -67 -16 -105 -39 -105 -64 0 -13 7
-26 15 -30 21 -8 19 -32 -6 -49 l-20 -15 26 -51 c20 -40 36 -57 68 -72 134
-65 137 -67 168 -132 16 -34 29 -66 29 -72 1 -18 34 -49 92 -88 84 -55 114
-65 205 -65 46 0 87 -3 93 -7 20 -12 10 -43 -15 -49 -52 -13 -26 -30 120 -78
49 -16 97 -35 105 -42 8 -7 38 -21 65 -31 28 -10 55 -23 60 -29 6 -6 22 -19
37 -29 38 -24 53 -54 40 -81 -6 -11 -13 -29 -16 -38 -4 -15 -10 -16 -33 -7
-35 13 -54 29 -48 40 10 15 -36 51 -57 46 -12 -3 -41 4 -66 15 l-45 22 -29
-34 c-15 -19 -28 -41 -28 -50 0 -9 -5 -21 -11 -27 -16 -16 -3 -32 21 -26 12 3
20 0 20 -6 0 -7 13 -17 29 -22 25 -9 30 -17 33 -52 6 -58 1 -67 -41 -67 -51 0
-66 -13 -63 -52 2 -30 -2 -36 -33 -51 -19 -9 -35 -23 -35 -30 0 -40 -67 -60
-106 -32 -19 13 -23 12 -41 -8 -11 -12 -27 -37 -36 -55 -13 -28 -14 -34 -2
-38 7 -3 18 -18 23 -34 9 -23 7 -31 -9 -46 -11 -10 -17 -24 -15 -31 8 -20 -7
-23 -68 -13 -44 7 -64 16 -86 40 -19 21 -37 30 -58 30 -17 0 -66 18 -109 40
-43 22 -92 40 -109 40 -19 0 -39 9 -53 24 -19 20 -20 27 -10 49 7 15 23 34 37
43 24 16 26 16 39 -2 14 -18 15 -18 27 -1 14 17 76 25 76 8 0 -27 177 -31 219
-4 15 10 35 13 56 9 20 -4 35 -2 37 4 2 6 26 12 53 13 55 2 67 11 58 44 -4 20
0 24 26 29 39 8 47 20 27 40 -9 8 -16 26 -16 38 0 13 -8 34 -19 47 -10 13 -22
35 -26 49 -13 42 -34 61 -55 47 -15 -9 -23 -8 -37 4 -10 8 -31 20 -46 27 -22
10 -26 15 -18 30 6 12 5 23 -4 35 -10 14 -21 16 -60 10 -46 -6 -47 -5 -40 17
6 19 4 22 -11 18 -46 -13 -49 -13 -49 7 0 11 -7 30 -16 43 -14 19 -27 23 -80
25 -41 2 -73 9 -89 20 -13 9 -32 17 -41 17 -9 0 -24 9 -34 20 -10 11 -26 22
-36 25 -10 3 -21 15 -24 26 -4 10 -12 19 -19 19 -6 0 -27 13 -46 30 -19 16
-43 29 -52 30 -9 0 -20 5 -23 10 -4 6 -14 8 -23 6 -24 -8 -41 6 -39 29 1 14
-8 24 -30 34 -18 8 -33 20 -33 27 0 7 -8 10 -21 7 -20 -6 -21 -3 -15 29 5 27
2 41 -15 62 -12 15 -25 42 -28 59 -5 24 -14 34 -36 40 -17 5 -54 20 -83 34
-29 14 -55 23 -59 19 -3 -3 -11 -2 -17 3 -11 9 -45 14 -77 12 -8 -1 -33 -19
-55 -41 -38 -39 -89 -62 -167 -76 -20 -3 -41 -11 -45 -18 -10 -15 -48 -36 -67
-36 -9 0 -13 -5 -10 -10 10 -16 -14 -40 -38 -40 -11 0 -28 -7 -38 -16 -14 -12
-22 -13 -39 -4 -12 6 -28 9 -35 6 -8 -3 -17 -1 -20 3 -2 5 -21 12 -41 16 -20
3 -45 11 -55 16 -11 5 -28 14 -39 19 -13 7 -20 7 -20 0 0 -11 -53 -14 -64 -3
-4 4 -34 15 -67 24 -43 12 -59 13 -59 4 0 -13 -45 -38 -73 -41 -54 -5 -79 -86
-40 -128 27 -30 30 -56 6 -57 -11 0 -13 -3 -5 -6 6 -2 12 -15 12 -28 0 -25
-39 -53 -103 -74 -20 -7 -51 -23 -70 -35 -19 -13 -58 -29 -88 -36 -30 -7 -67
-17 -84 -24 -16 -6 -36 -11 -43 -12 -24 -4 -40 -24 -35 -44 3 -13 -1 -22 -11
-25 -9 -3 -24 -8 -33 -12 -10 -3 -21 -5 -25 -5 -5 1 -8 -3 -8 -8 0 -6 -29 -44
-65 -85 -36 -41 -65 -81 -65 -89 0 -38 32 -86 67 -101 35 -15 35 -16 18 -35
-10 -11 -24 -20 -32 -20 -7 0 -13 -4 -13 -10 0 -5 -8 -10 -18 -10 -37 0 -124
-126 -99 -142 24 -16 -42 -37 -87 -29 -14 3 -71 -27 -88 -46 -9 -10 -18 -27
-22 -39 -3 -11 -18 -32 -32 -45 -21 -20 -28 -21 -44 -11 -25 15 -43 15 -58 0
-8 -8 -56 -11 -160 -9 -133 2 -152 1 -183 -17 -19 -12 -52 -22 -74 -24 -32 -3
-43 -10 -55 -33 -8 -16 -22 -35 -30 -42 -8 -8 -10 -13 -5 -12 28 4 36 -2 30
-22 -6 -17 1 -29 31 -55 21 -19 45 -34 53 -34 11 -1 8 -6 -9 -16 -16 -10 -17
-13 -5 -8 24 9 75 13 208 16 82 3 100 6 108 21 12 21 29 23 29 3 0 -8 12 -24
27 -36 24 -19 29 -20 39 -6 13 18 34 21 34 6 0 -18 74 -11 127 12 30 14 56 33
62 46 11 22 76 58 95 53 5 -1 24 6 42 15 26 14 35 15 47 6 18 -15 44 -6 52 17
3 10 29 28 58 40 28 13 66 29 82 37 44 21 188 38 286 36 34 -1 51 3 64 18 14
15 27 18 67 14 28 -3 67 1 87 7 43 15 182 12 229 -4 19 -7 32 -18 32 -28 0
-10 4 -21 10 -24 5 -3 8 0 5 7 -5 14 33 30 115 50 25 6 53 19 63 29 21 23 50
24 67 4 17 -21 86 -20 94 1 5 12 14 15 36 10 17 -3 44 -9 60 -12 17 -4 30 -10
30 -14 0 -5 37 -6 83 -3 58 3 90 10 109 24 35 24 152 54 175 44 10 -5 20 -9
23 -10 38 -10 51 -19 46 -31 -3 -8 0 -25 7 -37 6 -12 13 -23 13 -25 1 -2 25
11 53 28 62 36 62 36 80 8 12 -19 11 -23 -7 -37 -11 -9 -27 -28 -37 -44 -10
-15 -28 -30 -41 -33 -16 -4 -24 -13 -24 -28 0 -27 27 -66 46 -66 8 0 14 -4 14
-9 0 -5 9 -11 20 -14 14 -4 20 -14 20 -35 0 -17 5 -34 10 -37 24 -15 -75 -127
-142 -161 -27 -13 -48 -31 -48 -40 0 -43 58 -88 98 -77 16 4 22 1 22 -11 0
-18 16 -22 22 -5 6 19 48 0 48 -22 0 -14 15 -27 53 -44 28 -14 58 -25 65 -25
7 0 35 -12 63 -26 43 -23 57 -26 102 -19 104 14 240 -2 286 -35 14 -10 53 -24
85 -29 67 -12 96 -33 96 -69 0 -31 43 -107 65 -116 9 -3 14 -9 12 -13 -3 -5 5
-8 16 -9 127 -7 288 -39 351 -70 16 -8 32 -14 36 -14 4 0 38 -20 74 -45 87
-58 103 -62 162 -35 60 26 81 45 105 92 19 37 19 38 -1 75 -11 21 -20 56 -20
79 0 36 6 48 43 84 46 46 127 90 167 90 14 0 39 7 55 16 49 27 128 24 224 -7
90 -29 101 -40 103 -102 1 -20 4 -25 9 -15 6 12 20 13 65 7 31 -4 61 -12 67
-18 6 -6 40 -11 77 -11 90 0 103 -5 122 -51 18 -43 28 -45 93 -25 32 10 51 10
95 0 30 -7 87 -18 125 -25 39 -6 75 -17 81 -25 12 -15 63 -22 82 -10 7 4 14 1
18 -7 3 -10 27 -18 67 -22 34 -4 79 -16 101 -26 46 -24 66 -19 150 35 31 20
62 33 70 30 8 -3 20 3 27 14 8 10 21 19 29 19 8 0 40 5 70 12 46 10 63 9 99
-4 30 -10 48 -12 61 -5 15 8 28 4 56 -15 20 -14 42 -25 49 -25 6 0 20 -9 30
-20 23 -25 35 -25 80 1 34 20 38 20 81 6 41 -13 51 -13 88 -1 80 27 144 116
167 230 8 40 18 64 26 64 7 0 13 7 13 17 0 22 32 93 42 93 4 0 11 18 14 40 4
24 12 40 20 40 8 0 14 9 14 21 0 32 32 79 53 79 15 0 17 4 11 17 -4 10 -8 44
-9 77 -1 44 -6 62 -19 72 -13 9 -16 18 -10 31 4 10 8 23 9 29 0 6 6 18 13 27
11 13 10 20 -4 43 -18 26 -18 27 11 50 17 13 33 24 38 24 4 0 7 7 7 16 0 9 8
23 18 30 14 12 12 12 -15 1 -18 -7 -46 -25 -62 -40 -39 -34 -75 -35 -143 -2
l-51 25 -32 -20 c-18 -11 -45 -35 -61 -54 -36 -41 -76 -51 -242 -58 -62 -3
-63 -3 -102 39 -21 23 -51 45 -67 48 -15 4 -45 15 -66 26 -25 12 -60 19 -98
19 l-59 0 -1 -32 c-1 -18 -1 -37 0 -42 1 -5 -6 -17 -15 -27 -13 -14 -20 -16
-35 -6 -14 9 -26 8 -53 -1 -42 -16 -111 -6 -149 20 -15 11 -25 23 -23 26 2 4
-2 13 -10 19 -9 9 -15 9 -19 2 -5 -6 -11 -5 -18 5 -20 27 -70 30 -97 7 -21
-17 -22 -20 -7 -21 9 0 17 -7 17 -15 0 -24 -29 -75 -42 -75 -6 0 -19 -7 -29
-16 -21 -19 -39 -11 -39 18 0 11 -8 22 -20 25 -11 3 -20 9 -20 14 0 14 20 21
33 11 8 -6 24 -1 47 16 27 19 30 23 12 19 -12 -3 -28 1 -36 8 -7 8 -28 15 -47
17 -21 2 -33 8 -31 16 3 16 -3 15 -39 -3 -34 -18 -54 -12 -40 13 12 20 -31 87
-57 87 -10 0 -16 6 -14 16 4 26 -23 42 -47 30 -28 -15 -51 -14 -51 3 0 20 15
28 60 30 21 1 45 8 54 15 11 9 32 12 61 9 31 -4 45 -2 49 8 5 13 0 15 -47 18
-10 1 -22 8 -27 16 -8 12 -12 12 -18 2 -7 -10 -14 -10 -38 3 -33 17 -64 20
-64 5 0 -15 -26 -12 -40 5 -10 12 -10 19 -2 27 8 8 7 14 -5 23 -28 21 -5 38
42 31 33 -4 44 -2 49 9 7 19 21 19 39 0 13 -12 15 -12 20 5 3 11 13 20 24 20
15 0 16 2 3 10 -8 5 -15 19 -15 31 0 12 -5 24 -11 26 -6 2 -10 -7 -10 -19 1
-31 -33 -35 -101 -12 -56 19 -69 46 -26 52 12 2 22 11 22 20 3 51 14 118 22
128 5 6 7 18 4 26 -4 9 6 20 27 30 l33 17 -43 0 c-34 1 -45 5 -49 20 -3 13
-17 20 -51 25 -26 4 -66 9 -89 13 -49 6 -77 -9 -68 -38 5 -16 1 -19 -25 -19
-31 0 -56 30 -32 38 7 2 12 8 12 13 0 15 -22 10 -36 -8 -9 -13 -25 -18 -58
-17 -25 0 -46 0 -46 -1 0 -1 27 -21 61 -45 56 -39 68 -59 42 -67 -6 -2 -17 2
-25 9 -15 14 -55 38 -63 38 -15 0 -2 -18 16 -23 28 -7 23 -52 -6 -52 -11 0
-24 -3 -30 -6 -5 -4 -25 -4 -44 -1 -26 3 -36 12 -45 33 -6 16 -15 29 -21 29
-5 0 -21 9 -35 20 -33 26 -35 25 -50 -11 -12 -29 -11 -32 18 -58 18 -14 32
-30 32 -34 0 -4 18 -25 40 -47 38 -37 97 -56 116 -37 13 13 44 7 44 -8 0 -21
-47 -37 -82 -30 -21 5 -28 3 -28 -9 0 -19 75 -57 96 -49 21 8 56 -26 49 -48
-7 -21 19 -49 46 -49 11 0 19 -7 19 -16 0 -8 4 -13 9 -10 15 10 60 -18 63 -39
2 -12 12 -21 26 -23 12 -2 22 -7 22 -12 0 -4 9 -10 20 -13 26 -7 25 -21 -2
-34 -27 -12 -48 -7 -48 12 0 7 -6 15 -14 18 -10 4 -12 0 -9 -14 4 -14 0 -19
-16 -19 -23 0 -31 35 -9 42 23 8 -45 63 -77 63 -18 0 -37 8 -47 20 -18 20 -18
20 -18 -2 0 -26 25 -53 49 -53 14 0 21 -13 30 -57 6 -31 9 -58 6 -61 -8 -9
-36 8 -30 18 3 5 2 10 -4 10 -5 0 -11 10 -13 23 -2 12 -16 28 -33 37 -16 9
-42 24 -57 34 -16 10 -35 15 -47 11 -10 -3 -22 -1 -26 5 -12 19 -33 11 -28
-11 4 -14 8 -17 13 -9 10 16 47 -20 56 -54 6 -26 3 -28 -63 -41 -26 -5 -33 -3
-33 9 0 8 -9 20 -20 26 -11 6 -20 9 -20 8 0 -2 14 -30 30 -62 21 -39 28 -62
21 -69 -6 -6 -2 -16 12 -29 15 -13 18 -21 10 -24 -7 -3 -13 -14 -13 -24 0 -24
-22 -41 -39 -30 -8 4 -15 23 -16 41 -2 43 -13 69 -30 69 -14 0 -25 -22 -25
-51 0 -10 -4 -19 -8 -19 -15 0 -32 24 -32 45 0 12 -11 31 -25 43 -29 26 -39
28 -32 7 7 -16 -8 -28 -40 -33 -17 -2 -23 2 -23 17 0 11 -7 26 -15 35 -19 19
-19 25 2 48 15 17 15 20 -7 43 -12 13 -26 23 -29 22 -4 -1 -20 12 -35 28 -23
24 -25 31 -12 33 9 2 23 17 31 33 l15 29 -31 -7 c-29 -5 -32 -4 -27 15 6 21
-8 32 -38 32 -11 0 -13 -7 -8 -27 4 -16 11 -33 15 -39 12 -15 0 -24 -33 -24
-61 0 -86 34 -49 67 11 9 17 22 14 29 -2 7 3 27 13 43 18 30 18 31 -6 56 -13
14 -29 25 -36 25 -7 0 -21 16 -30 35 -9 19 -19 35 -23 35 -3 0 -12 13 -19 28
-7 18 -31 38 -59 53 -50 26 -77 58 -55 66 6 3 10 9 7 13 -3 5 1 36 8 69 10 43
11 61 3 64 -8 3 -7 8 1 19 7 8 10 17 7 21 -3 3 13 22 35 42 23 21 41 42 41 47
0 5 -10 -3 -23 -18 -20 -23 -29 -26 -58 -20 -23 4 -43 17 -58 36 -12 17 -28
30 -35 30 -8 0 -42 16 -76 35 -44 25 -85 39 -136 46 -57 9 -74 15 -74 28 0 13
-10 15 -61 13 -58 -4 -61 -3 -54 17 5 18 2 21 -24 21 -24 0 -31 4 -31 19 0 12
-9 22 -22 26 -13 4 -32 15 -43 24 -11 9 -42 23 -70 30 -29 7 -63 24 -80 42
-17 16 -34 29 -37 29 -4 0 -24 17 -45 38 -21 20 -49 44 -63 53 -19 12 -22 20
-14 30 6 8 11 25 12 39 1 25 0 25 -27 -7 -33 -40 -48 -41 -61 -8 -5 14 -14 25
-19 25 -7 0 -41 80 -41 97 0 2 9 3 19 3 21 0 35 13 25 23 -4 3 -15 1 -25 -6
-15 -9 -23 -9 -39 1 -25 15 -31 15 -27 0z m-639 -545 c7 -70 6 -86 -8 -108 -9
-14 -14 -30 -11 -36 4 -5 0 -20 -7 -32 -25 -38 -30 -60 -13 -53 18 6 80 -57
81 -83 0 -9 4 -29 8 -44 6 -21 4 -33 -10 -48 -11 -13 -14 -23 -8 -29 7 -7 6
-37 -2 -87 -16 -109 -19 -113 -57 -102 -44 12 -57 11 -57 -5 0 -19 -19 -32
-55 -39 -26 -4 -33 0 -52 30 -23 35 -24 42 -19 153 1 36 0 70 -3 75 -3 6 -6
15 -6 20 0 6 -10 14 -22 20 -23 10 -31 39 -13 50 5 3 7 12 3 20 -3 9 1 15 10
15 8 0 17 -5 19 -11 6 -17 75 -2 99 22 10 10 23 19 28 19 5 0 11 7 15 15 3 10
-6 20 -27 31 -35 19 -58 44 -53 59 1 6 -4 16 -13 22 -13 10 -14 14 -2 22 9 6
10 11 2 15 -28 17 1 92 39 101 54 12 78 27 84 52 5 16 13 23 24 21 13 -3 19
-20 26 -85z m2871 -383 c0 -23 -49 -20 -53 3 -3 15 2 18 25 15 17 -2 28 -9 28
-18z m50 -46 c0 -15 -7 -19 -32 -19 -39 0 -45 15 -12 32 30 16 44 12 44 -13z
m-3869 -12 c6 -4 16 -17 23 -30 10 -18 9 -23 -3 -28 -21 -8 -101 22 -101 37 0
12 12 17 65 28 3 0 10 -3 16 -7z m3784 -11 c0 -6 -4 -13 -10 -16 -5 -3 -10
-15 -10 -25 0 -17 -5 -19 -32 -13 -58 11 -62 44 -7 54 53 10 59 10 59 0z
m-3957 -30 c-4 -15 0 -18 21 -14 42 8 33 -26 -23 -86 -45 -48 -70 -56 -55 -17
4 11 0 16 -14 16 -12 0 -25 7 -30 16 -6 10 -12 13 -16 6 -7 -12 -56 8 -56 23
0 12 112 71 145 78 28 5 34 0 28 -22z m-283 -151 c0 -10 -8 -21 -17 -25 -17
-6 -17 -7 0 -19 26 -20 20 -36 -14 -36 -26 0 -30 3 -26 19 3 13 -1 21 -14 24
-28 7 -23 25 12 46 35 22 59 18 59 -9z m4084 -19 c23 -26 11 -44 -23 -36 -37
9 -46 21 -30 39 19 21 32 20 53 -3z m24 -233 c-6 -18 -28 -21 -28 -4 0 9 7 16
16 16 9 0 14 -5 12 -12z m154 -96 c2 -21 8 -26 23 -24 45 7 58 7 62 -3 1 -6
-11 -16 -28 -24 -25 -11 -36 -11 -50 -3 -15 10 -22 8 -38 -9 -11 -12 -26 -19
-35 -16 -9 3 -18 2 -21 -3 -10 -17 -65 -12 -65 6 0 9 7 14 18 13 21 -2 82 22
82 34 0 4 -18 5 -40 2 -45 -7 -49 -1 -21 29 14 15 34 22 65 23 42 1 45 0 48
-25z m40 -4 c-9 -9 -15 -9 -24 0 -10 10 -10 15 2 22 20 12 38 -6 22 -22z
m-192 -8 c0 -29 -23 -59 -52 -69 -28 -10 -35 -9 -46 6 -17 23 -10 39 16 35 13
-2 27 6 37 22 15 23 45 26 45 6z m310 -69 c0 -3 -10 -12 -21 -19 -30 -19 -53
3 -26 23 18 13 47 11 47 -4z m-182 -39 c3 -16 -2 -22 -16 -22 -21 0 -36 25
-26 41 10 17 39 5 42 -19z m342 13 c10 -12 9 -16 -5 -21 -19 -8 -40 9 -31 25
10 15 21 14 36 -4z m-276 -26 c-8 -14 -34 -11 -34 4 0 8 3 17 7 20 9 9 34 -13
27 -24z m247 -71 c1 -7 0 -17 -1 -23 -1 -5 -2 -22 -2 -37 1 -32 -1 -34 -51
-43 -30 -6 -37 -4 -37 9 0 9 8 16 18 16 11 0 24 16 35 45 18 43 36 58 38 33z
m-615 -43 c5 -12 15 -14 39 -9 28 5 34 2 40 -15 5 -18 14 -20 78 -20 40 0 99
-2 132 -3 56 -3 60 -5 58 -26 -3 -21 -2 -22 21 -7 13 9 28 15 32 14 5 -1 17 1
27 6 27 12 42 -8 26 -36 -21 -39 -37 -51 -56 -41 -18 9 -26 9 -165 -3 -65 -6
-78 -5 -78 8 0 17 -25 26 -95 33 -98 10 -107 12 -116 21 -13 13 1 73 17 73 8
0 14 5 14 10 0 16 20 12 26 -5z m1919 5 c3 -5 -20 -26 -52 -46 -32 -20 -60
-38 -62 -40 -2 -2 4 -13 14 -24 23 -25 18 -30 -30 -32 -20 -1 -39 -7 -42 -14
-2 -6 -25 -17 -51 -24 -26 -6 -50 -16 -53 -22 -5 -8 -23 -7 -60 3 -41 11 -58
22 -76 48 -23 34 -22 57 2 47 7 -2 22 2 34 10 12 9 30 13 41 9 16 -5 20 -2 20
16 0 21 3 21 55 15 57 -6 147 12 190 39 12 7 30 15 40 18 11 2 21 5 22 6 1 0
5 -3 8 -9z"/>
<path d="M8088 3203 c7 -3 16 -2 19 1 4 3 -2 6 -13 5 -11 0 -14 -3 -6 -6z"/>
<path d="M7116 3171 c-4 -7 -5 -15 -2 -18 9 -9 19 4 14 18 -4 11 -6 11 -12 0z"/>
<path d="M6932 3148 c2 -5 8 -9 13 -9 5 0 11 4 13 9 1 5 -4 9 -13 9 -9 0 -14
-4 -13 -9z"/>
<path d="M7689 3125 c6 -13 6 -27 0 -38 -6 -9 -8 -17 -5 -17 3 0 10 8 15 19 8
13 6 23 -5 37 -15 18 -15 18 -5 -1z"/>
<path d="M5235 3119 c-4 -6 -5 -12 -2 -15 2 -3 7 2 10 11 7 17 1 20 -8 4z"/>
<path d="M12787 3113 c-2 -5 -7 -21 -11 -36 -4 -19 -12 -27 -24 -26 -21 4 -62
-22 -62 -38 0 -6 10 -13 23 -15 12 -2 21 -8 20 -14 -1 -6 8 -11 20 -10 13 1
26 -8 34 -24 11 -22 13 -13 13 73 0 90 -3 108 -13 90z"/>
<path d="M6974 3084 c-14 -6 6 -72 24 -79 10 -4 11 1 6 18 -4 12 -11 25 -17
28 -5 4 -7 14 -4 23 4 9 5 16 4 15 -1 0 -7 -3 -13 -5z"/>
<path d="M9526 3077 c3 -10 9 -15 12 -12 3 3 0 11 -7 18 -10 9 -11 8 -5 -6z"/>
<path d="M5167 3045 c-15 -14 -24 -25 -19 -25 5 0 19 11 32 25 30 32 23 32
-13 0z"/>
<path d="M8958 3023 c7 -3 16 -2 19 1 4 3 -2 6 -13 5 -11 0 -14 -3 -6 -6z"/>
<path d="M8904 2988 l-29 -33 33 29 c17 17 32 31 32 33 0 8 -8 1 -36 -29z"/>
<path d="M9000 3016 c0 -3 14 -12 30 -21 17 -9 30 -13 30 -11 0 3 -13 12 -30
21 -16 9 -30 13 -30 11z"/>
<path d="M7663 2978 c-15 -20 -25 -38 -20 -38 3 0 12 11 21 25 17 26 16 35 -1
13z"/>
<path d="M8826 2933 c-4 -4 -28 -10 -54 -14 l-47 -6 41 -2 c22 0 49 6 60 14
10 8 16 15 13 15 -3 0 -9 -3 -13 -7z"/>
<path d="M12701 2913 c-10 -26 -10 -27 4 -9 8 11 15 23 15 28 0 15 -7 8 -19
-19z"/>
<path d="M8573 2923 c15 -2 39 -2 55 0 15 2 2 4 -28 4 -30 0 -43 -2 -27 -4z"/>
<path d="M8463 2913 c15 -2 37 -2 50 0 12 2 0 4 -28 4 -27 0 -38 -2 -22 -4z"/>
<path d="M8683 2913 c9 -2 23 -2 30 0 6 3 -1 5 -18 5 -16 0 -22 -2 -12 -5z"/>
<path d="M9084 2903 c11 -13 26 -23 35 -22 14 0 14 1 1 6 -8 3 -24 13 -35 22
-20 16 -20 16 -1 -6z"/>
<path d="M9151 2877 c2 -1 15 -11 29 -22 l25 -20 -19 23 c-11 12 -24 22 -29
22 -6 0 -8 -1 -6 -3z"/>
<path d="M8330 2845 c-13 -14 -22 -27 -19 -29 2 -2 14 10 27 25 29 36 24 38
-8 4z"/>
<path d="M12664 2848 l-19 -23 23 19 c21 18 27 26 19 26 -2 0 -12 -10 -23 -22z"/>
<path d="M3310 2826 c0 -2 8 -10 18 -17 15 -13 16 -12 3 4 -13 16 -21 21 -21
13z"/>
<path d="M12619 2813 c-13 -16 -12 -17 4 -4 16 13 21 21 13 21 -2 0 -10 -8
-17 -17z"/>
<path d="M7841 2793 c7 -12 15 -20 18 -17 3 2 -3 12 -13 22 -17 16 -18 16 -5
-5z"/>
<path d="M9220 2805 c0 -5 5 -17 10 -25 5 -8 10 -10 10 -5 0 6 -5 17 -10 25
-5 8 -10 11 -10 5z"/>
<path d="M12088 2803 c7 -3 16 -2 19 1 4 3 -2 6 -13 5 -11 0 -14 -3 -6 -6z"/>
<path d="M11689 2773 c-13 -16 -12 -17 4 -4 16 13 21 21 13 21 -2 0 -10 -8
-17 -17z"/>
<path d="M11771 2787 c2 -1 13 -9 24 -17 19 -14 19 -14 6 3 -7 9 -18 17 -24
17 -6 0 -8 -1 -6 -3z"/>
<path d="M12130 2786 c0 -2 8 -10 18 -17 15 -13 16 -12 3 4 -13 16 -21 21 -21
13z"/>
<path d="M12288 2763 c7 -3 16 -2 19 1 4 3 -2 6 -13 5 -11 0 -14 -3 -6 -6z"/>
<path d="M3366 2747 c3 -10 9 -15 12 -12 3 3 0 11 -7 18 -10 9 -11 8 -5 -6z"/>
<path d="M12178 2748 c5 -5 16 -8 23 -6 8 3 3 7 -10 11 -17 4 -21 3 -13 -5z"/>
<path d="M12320 2751 c0 -6 4 -13 10 -16 6 -3 7 1 4 9 -7 18 -14 21 -14 7z"/>
<path d="M3380 2716 c0 -2 8 -10 18 -17 15 -13 16 -12 3 4 -13 16 -21 21 -21
13z"/>
<path d="M12546 2675 c-11 -8 -15 -15 -9 -15 6 0 16 7 23 15 16 19 11 19 -14
0z"/>
<path d="M3427 2669 c7 -7 15 -10 18 -7 3 3 -2 9 -12 12 -14 6 -15 5 -6 -5z"/>
<path d="M8219 2663 c-13 -16 -12 -17 4 -4 16 13 21 21 13 21 -2 0 -10 -8 -17
-17z"/>
<path d="M12360 2676 c0 -2 8 -10 18 -17 15 -13 16 -12 3 4 -13 16 -21 21 -21
13z"/>
<path d="M12488 2653 c7 -3 16 -2 19 1 4 3 -2 6 -13 5 -11 0 -14 -3 -6 -6z"/>
<path d="M7880 2630 c6 -11 13 -20 16 -20 2 0 0 9 -6 20 -6 11 -13 20 -16 20
-2 0 0 -9 6 -20z"/>
<path d="M8139 2623 c-13 -16 -12 -17 4 -4 9 7 17 15 17 17 0 8 -8 3 -21 -13z"/>
<path d="M12428 2633 c7 -3 16 -2 19 1 4 3 -2 6 -13 5 -11 0 -14 -3 -6 -6z"/>
<path d="M3540 2616 c0 -2 8 -10 18 -17 15 -13 16 -12 3 4 -13 16 -21 21 -21
13z"/>
<path d="M3588 2583 c7 -3 16 -2 19 1 4 3 -2 6 -13 5 -11 0 -14 -3 -6 -6z"/>
<path d="M3633 2573 c9 -2 25 -2 35 0 9 3 1 5 -18 5 -19 0 -27 -2 -17 -5z"/>
<path d="M3738 2563 c6 -2 18 -2 25 0 6 3 1 5 -13 5 -14 0 -19 -2 -12 -5z"/>
<path d="M7930 2566 c0 -2 8 -10 18 -17 15 -13 16 -12 3 4 -13 16 -21 21 -21
13z"/>
<path d="M3780 2556 c0 -2 9 -6 20 -9 11 -3 18 -1 14 4 -5 9 -34 13 -34 5z"/>
<path d="M8060 2535 c-26 -28 -49 -32 -70 -12 -12 10 -12 9 -1 -5 19 -26 43
-22 76 12 16 17 26 30 24 30 -3 0 -16 -11 -29 -25z"/>
<path d="M3885 2480 c10 -11 20 -20 23 -20 3 0 -3 9 -13 20 -10 11 -20 20 -23
20 -3 0 3 -9 13 -20z"/>
<path d="M4097 2473 c-3 -4 29 -9 71 -11 42 -2 74 -1 72 1 -10 9 -138 18 -143
10z"/>
<path d="M4294 2446 c11 -9 29 -16 40 -15 17 1 16 2 -6 9 -14 4 -32 11 -40 15
-7 3 -4 -1 6 -9z"/>
<path d="M4025 2439 c-11 -16 -1 -19 13 -3 7 8 8 14 3 14 -5 0 -13 -5 -16 -11z"/>
<path d="M9366 2381 c-5 -7 -20 -9 -40 -6 -26 5 -37 1 -66 -27 -33 -32 -34
-34 -17 -51 21 -21 28 -22 21 -2 -4 9 0 15 9 15 8 0 28 3 44 6 19 4 35 1 44
-8 20 -19 129 -23 129 -4 0 8 10 18 23 22 29 10 33 11 59 13 22 1 22 1 -2 18
-14 10 -45 18 -70 19 -25 1 -64 5 -86 9 -28 5 -44 3 -48 -4z"/>
<path d="M4417 2369 c7 -7 15 -10 18 -7 3 3 -2 9 -12 12 -14 6 -15 5 -6 -5z"/>
<path d="M4455 2350 c3 -5 8 -10 11 -10 2 0 4 5 4 10 0 6 -5 10 -11 10 -5 0
-7 -4 -4 -10z"/>
<path d="M9865 2309 c-4 -6 -5 -12 -2 -15 2 -3 7 2 10 11 7 17 1 20 -8 4z"/>
<path d="M9170 2300 c-13 -8 -13 -10 2 -10 9 0 20 5 23 10 8 13 -5 13 -25 0z"/>
<path d="M11325 2290 c10 -11 20 -20 23 -20 3 0 -3 9 -13 20 -10 11 -20 20
-23 20 -3 0 3 -9 13 -20z"/>
<path d="M12424 2279 c-10 -16 11 -31 37 -27 l23 3 -26 17 c-18 12 -29 14 -34
7z"/>
<path d="M9852 2260 c0 -14 2 -19 5 -12 2 6 2 18 0 25 -3 6 -5 1 -5 -13z"/>
<path d="M11374 2256 c11 -9 27 -16 35 -15 14 0 14 1 1 6 -8 3 -24 10 -35 15
-20 9 -20 9 -1 -6z"/>
<path d="M8555 2240 c3 -5 15 -15 27 -21 16 -8 19 -8 16 2 -2 6 -14 16 -27 20
-14 6 -20 5 -16 -1z"/>
<path d="M9867 2219 c7 -7 15 -10 18 -7 3 3 -2 9 -12 12 -14 6 -15 5 -6 -5z"/>
<path d="M11460 2223 c0 -6 8 -17 18 -24 16 -13 16 -13 2 6 -8 11 -16 22 -17
24 -2 2 -3 0 -3 -6z"/>
<path d="M9988 2193 c7 -3 16 -2 19 1 4 3 -2 6 -13 5 -11 0 -14 -3 -6 -6z"/>
<path d="M11518 2144 c12 -8 22 -21 22 -29 0 -8 4 -17 10 -20 14 -8 1 26 -18
48 -8 9 -20 17 -26 17 -6 0 0 -7 12 -16z"/>
<path d="M10095 2110 c10 -11 20 -20 23 -20 3 0 -3 9 -13 20 -10 11 -20 20
-23 20 -3 0 3 -9 13 -20z"/>
<path d="M9080 2113 c0 -5 5 -15 10 -23 8 -12 10 -11 10 8 0 12 -4 22 -10 22
-5 0 -10 -3 -10 -7z"/>
<path d="M9118 2113 c7 -3 16 -2 19 1 4 3 -2 6 -13 5 -11 0 -14 -3 -6 -6z"/>
<path d="M11570 2086 c0 -2 8 -10 18 -17 15 -13 16 -12 3 4 -13 16 -21 21 -21
13z"/>
<path d="M10140 2077 c0 -3 12 -12 26 -22 15 -9 23 -12 20 -6 -7 11 -46 35
-46 28z"/>
<path d="M11618 1997 c2 -23 7 -45 11 -49 3 -4 5 12 3 35 -2 23 -7 45 -11 49
-3 4 -5 -12 -3 -35z"/>
<path d="M10192 2005 c0 -16 2 -22 5 -12 2 9 2 23 0 30 -3 6 -5 -1 -5 -18z"/>
<path d="M10290 2001 c0 -13 29 -35 37 -28 7 8 -15 37 -28 37 -5 0 -9 -4 -9
-9z"/>
<path d="M11940 1970 c-9 -17 -8 -20 12 -21 13 -1 30 0 37 1 8 1 21 -6 28 -16
10 -13 15 -14 27 -5 11 9 11 17 2 36 -9 21 -18 25 -53 25 -32 0 -45 -5 -53
-20z"/>
<path d="M10211 1948 c0 -9 -4 -25 -7 -35 -5 -17 -5 -17 6 0 6 10 9 25 7 35
-4 15 -5 15 -6 0z"/>
<path d="M11651 1928 c2 -2 20 -16 39 -33 l35 -30 -29 33 c-17 17 -34 32 -40
32 -5 0 -7 -1 -5 -2z"/>
<path d="M8378 1891 c38 -15 59 -17 75 -11 20 9 20 10 2 8 -11 -2 -25 1 -31 4
-6 4 -31 10 -55 13 l-44 5 53 -19z"/>
<path d="M12090 1890 c-8 -5 -10 -10 -5 -10 6 0 17 5 25 10 8 5 11 10 5 10 -5
0 -17 -5 -25 -10z"/>
<path d="M12161 1897 c2 -2 18 -11 34 -21 l30 -17 -24 20 c-13 12 -28 21 -34
21 -6 0 -8 -1 -6 -3z"/>
<path d="M12417 1882 c4 -8 -1 -20 -11 -27 -16 -12 -16 -14 1 -27 11 -7 23
-34 29 -63 10 -56 29 -67 70 -40 l25 16 -27 24 c-21 18 -24 25 -14 29 8 2 22
7 30 9 8 3 -6 6 -32 6 -49 1 -61 14 -37 38 16 16 5 39 -19 45 -15 4 -19 2 -15
-10z"/>
<path d="M11726 1847 c3 -10 9 -15 12 -12 3 3 0 11 -7 18 -10 9 -11 8 -5 -6z"/>
<path d="M12230 1856 c0 -2 8 -10 18 -17 15 -13 16 -12 3 4 -13 16 -21 21 -21
13z"/>
<path d="M12083 1805 c0 -22 2 -30 4 -17 2 12 2 30 0 40 -3 9 -5 -1 -4 -23z"/>
<path d="M9976 1815 c4 -8 11 -15 16 -15 6 0 5 6 -2 15 -7 8 -14 15 -16 15 -2
0 -1 -7 2 -15z"/>
<path d="M11093 1813 c9 -2 23 -2 30 0 6 3 -1 5 -18 5 -16 0 -22 -2 -12 -5z"/>
<path d="M11955 1813 c11 -3 27 -10 35 -17 13 -10 13 -9 1 7 -7 9 -23 16 -35
16 -20 -1 -20 -2 -1 -6z"/>
<path d="M9106 1775 c-6 -17 2 -25 26 -25 10 0 18 -5 18 -10 0 -6 11 -23 24
-37 l25 -27 20 25 c15 18 16 25 6 27 -8 2 -18 15 -23 30 -7 22 -15 26 -49 28
-27 1 -43 -3 -47 -11z"/>
<path d="M11879 1773 c-13 -16 -12 -17 4 -4 16 13 21 21 13 21 -2 0 -10 -8
-17 -17z"/>
<path d="M12587 1778 c6 -10 35 -10 51 0 8 5 -1 8 -22 8 -19 -1 -32 -4 -29 -8z"/>
<path d="M12690 1763 c13 -18 25 -33 27 -33 8 0 -17 38 -33 51 -11 9 -9 2 6
-18z"/>
<path d="M11800 1776 c0 -2 8 -10 18 -17 15 -13 16 -12 3 4 -13 16 -21 21 -21
13z"/>
<path d="M12040 1770 c-8 -5 -10 -10 -5 -10 6 0 17 5 25 10 8 5 11 10 5 10 -5
0 -17 -5 -25 -10z"/>
<path d="M10909 1743 c-13 -16 -12 -17 4 -4 16 13 21 21 13 21 -2 0 -10 -8
-17 -17z"/>
<path d="M12750 1705 c13 -14 26 -25 28 -25 3 0 -5 11 -18 25 -13 14 -26 25
-28 25 -3 0 5 -11 18 -25z"/>
<path d="M10194 1706 c11 -9 24 -16 30 -16 12 0 7 5 -24 19 -24 11 -24 11 -6
-3z"/>
<path d="M12066 1705 c-9 -26 -7 -32 5 -12 6 10 9 21 6 23 -2 3 -7 -2 -11 -11z"/>
<path d="M10854 1688 l-19 -23 23 19 c21 18 27 26 19 26 -2 0 -12 -10 -23 -22z"/>
<path d="M11265 1700 c3 -6 12 -10 20 -10 8 0 21 -10 29 -22 9 -12 16 -18 16
-12 0 6 -8 18 -17 26 -22 19 -56 32 -48 18z"/>
<path d="M10258 1683 c6 -2 18 -2 25 0 6 3 1 5 -13 5 -14 0 -19 -2 -12 -5z"/>
<path d="M9273 1663 c-7 -2 -13 -9 -13 -14 0 -6 5 -7 12 -3 6 4 26 8 44 9 18
0 36 4 40 8 8 8 -64 8 -83 0z"/>
<path d="M12031 1637 c-13 -21 -12 -21 5 -5 10 10 16 20 13 22 -3 3 -11 -5
-18 -17z"/>
<path d="M11326 1625 c-3 -9 -6 -22 -5 -28 0 -7 5 -1 10 12 5 13 8 26 5 28 -2
2 -6 -3 -10 -12z"/>
<path d="M5350 1565 c13 -14 26 -25 28 -25 3 0 -5 11 -18 25 -13 14 -26 25
-28 25 -3 0 5 -11 18 -25z"/>
<path d="M11977 1475 c-15 -14 -24 -25 -19 -25 5 0 19 11 32 25 30 32 23 32
-13 0z"/>
<path d="M5369 1463 c-13 -16 -12 -17 4 -4 16 13 21 21 13 21 -2 0 -10 -8 -17
-17z"/>
<path d="M11310 1476 c0 -2 8 -10 18 -17 15 -13 16 -12 3 4 -13 16 -21 21 -21
13z"/>
<path d="M5329 1433 c-13 -16 -12 -17 4 -4 16 13 21 21 13 21 -2 0 -10 -8 -17
-17z"/>
<path d="M11418 1443 c6 -2 18 -2 25 0 6 3 1 5 -13 5 -14 0 -19 -2 -12 -5z"/>
<path d="M11909 1433 c-13 -16 -12 -17 4 -4 16 13 21 21 13 21 -2 0 -10 -8
-17 -17z"/>
<path d="M11470 1430 c8 -5 26 -10 39 -10 32 0 24 6 -19 14 -25 4 -31 3 -20
-4z"/>
<path d="M5289 1403 c-13 -16 -12 -17 4 -4 16 13 21 21 13 21 -2 0 -10 -8 -17
-17z"/>
<path d="M11600 1406 c0 -2 8 -10 18 -17 15 -13 16 -12 3 4 -13 16 -21 21 -21
13z"/>
<path d="M5232 1328 c-7 -7 -11 -28 -11 -47 1 -20 3 -28 6 -19 3 13 18 18 56
21 l52 3 -52 2 c-54 2 -67 14 -41 40 7 7 10 12 7 12 -3 0 -10 -5 -17 -12z"/>
<path d="M11600 1315 c-13 -14 -22 -27 -19 -29 2 -2 14 10 27 25 29 36 24 38
-8 4z"/>
<path d="M3435 1320 c-16 -7 -17 -9 -3 -9 9 -1 20 4 23 9 7 11 7 11 -20 0z"/>
<path d="M11827 1265 c-15 -14 -24 -25 -19 -25 5 0 19 11 32 25 30 32 23 32
-13 0z"/>
<path d="M11572 1195 c0 -44 3 -91 7 -105 5 -14 6 18 4 70 -6 121 -11 139 -11
35z"/>
<path d="M5400 1256 c0 -2 7 -7 16 -10 8 -3 12 -2 9 4 -6 10 -25 14 -25 6z"/>
<path d="M5480 1216 c0 -2 8 -10 18 -17 15 -13 16 -12 3 4 -13 16 -21 21 -21
13z"/>
<path d="M11683 1213 c9 -2 23 -2 30 0 6 3 -1 5 -18 5 -16 0 -22 -2 -12 -5z"/>
<path d="M5223 1165 c0 -27 2 -38 4 -22 2 15 2 37 0 50 -2 12 -4 0 -4 -28z"/>
<path d="M5520 1141 c0 -6 4 -13 10 -16 6 -3 7 1 4 9 -7 18 -14 21 -14 7z"/>
<path d="M5550 1106 c0 -2 8 -10 18 -17 15 -13 16 -12 3 4 -13 16 -21 21 -21
13z"/>
<path d="M5195 1059 c-4 -6 -5 -12 -2 -15 2 -3 7 2 10 11 7 17 1 20 -8 4z"/>
<path d="M5630 1011 c5 -11 15 -23 21 -27 6 -3 3 5 -6 20 -20 30 -30 35 -15 7z"/>
<path d="M11559 963 l-24 -28 28 24 c15 14 27 26 27 28 0 8 -8 1 -31 -24z"/>
<path d="M5094 938 l-19 -23 23 19 c12 11 22 21 22 23 0 8 -8 2 -26 -19z"/>
<path d="M5690 925 c13 -14 26 -25 28 -25 3 0 -5 11 -18 25 -13 14 -26 25 -28
25 -3 0 5 -11 18 -25z"/>
<path d="M12117 944 c-6 -10 9 -42 16 -34 3 3 1 14 -3 24 -3 11 -9 15 -13 10z"/>
<path d="M5049 903 c-13 -16 -12 -17 4 -4 9 7 17 15 17 17 0 8 -8 3 -21 -13z"/>
<path d="M4683 903 c9 -2 25 -2 35 0 9 3 1 5 -18 5 -19 0 -27 -2 -17 -5z"/>
<path d="M4765 880 c10 -11 20 -20 23 -20 3 0 -3 9 -13 20 -10 11 -20 20 -23
20 -3 0 3 -9 13 -20z"/>
<path d="M4601 867 c-13 -21 -12 -21 5 -5 10 10 16 20 13 22 -3 3 -11 -5 -18
-17z"/>
<path d="M11511 864 c0 -11 3 -14 6 -6 3 7 2 16 -1 19 -3 4 -6 -2 -5 -13z"/>
<path d="M4980 850 c-9 -6 -10 -10 -3 -10 6 0 15 5 18 10 8 12 4 12 -15 0z"/>
<path d="M2844 823 c-3 -16 -8 -35 -10 -43 -3 -10 -2 -11 4 -5 10 11 24 75 17
75 -3 0 -7 -12 -11 -27z"/>
<path d="M4810 841 c0 -9 30 -24 36 -18 2 1 -6 8 -16 15 -11 7 -20 8 -20 3z"/>
<path d="M5857 839 c7 -7 15 -10 18 -7 3 3 -2 9 -12 12 -14 6 -15 5 -6 -5z"/>
<path d="M4930 830 c-8 -5 -10 -10 -5 -10 6 0 17 5 25 10 8 5 11 10 5 10 -5 0
-17 -5 -25 -10z"/>
<path d="M11502 820 c0 -14 2 -19 5 -12 2 6 2 18 0 25 -3 6 -5 1 -5 -13z"/>
<path d="M5934 806 c11 -9 24 -16 30 -16 12 0 7 5 -24 19 -24 11 -24 11 -6 -3z"/>
<path d="M4562 750 c0 -19 2 -27 5 -17 2 9 2 25 0 35 -3 9 -5 1 -5 -18z"/>
<path d="M6078 773 c7 -3 16 -2 19 1 4 3 -2 6 -13 5 -11 0 -14 -3 -6 -6z"/>
<path d="M8479 763 c-13 -16 -12 -17 4 -4 16 13 21 21 13 21 -2 0 -10 -8 -17
-17z"/>
<path d="M6125 763 c11 -3 24 -9 30 -14 5 -5 14 -9 20 -9 5 0 1 7 -9 15 -11 8
-29 14 -40 14 -20 -1 -21 -1 -1 -6z"/>
<path d="M6278 743 c7 -3 16 -2 19 1 4 3 -2 6 -13 5 -11 0 -14 -3 -6 -6z"/>
<path d="M11482 725 c0 -16 2 -22 5 -12 2 9 2 23 0 30 -3 6 -5 -1 -5 -18z"/>
<path d="M2785 730 c-13 -6 -15 -9 -5 -9 8 0 22 4 30 9 18 12 2 12 -25 0z"/>
<path d="M6382 724 c10 -10 20 -15 24 -12 3 4 -5 12 -18 18 -22 12 -22 12 -6
-6z"/>
<path d="M8445 714 c-9 -15 -12 -23 -6 -20 11 7 35 46 28 46 -3 0 -12 -12 -22
-26z"/>
<path d="M6172 710 c0 -14 2 -19 5 -12 2 6 2 18 0 25 -3 6 -5 1 -5 -13z"/>
<path d="M10682 705 c0 -16 2 -22 5 -12 2 9 2 23 0 30 -3 6 -5 -1 -5 -18z"/>
<path d="M4546 693 c-6 -14 -5 -15 5 -6 7 7 10 15 7 18 -3 3 -9 -2 -12 -12z"/>
<path d="M2680 690 c-23 -7 -23 -8 -3 -9 12 -1 25 4 28 9 3 6 5 10 3 9 -2 -1
-14 -5 -28 -9z"/>
<path d="M6420 696 c0 -3 9 -10 20 -16 11 -6 20 -8 20 -6 0 3 -9 10 -20 16
-11 6 -20 8 -20 6z"/>
<path d="M3133 683 c9 -2 23 -2 30 0 6 3 -1 5 -18 5 -16 0 -22 -2 -12 -5z"/>
<path d="M3243 683 c15 -2 39 -2 55 0 15 2 2 4 -28 4 -30 0 -43 -2 -27 -4z"/>
<path d="M10040 680 c0 -6 8 -14 18 -17 9 -4 20 -11 24 -17 4 -6 10 -7 14 -3
4 3 -4 15 -17 26 -27 23 -39 26 -39 11z"/>
<path d="M6162 655 c0 -16 2 -22 5 -12 2 9 2 23 0 30 -3 6 -5 -1 -5 -18z"/>
<path d="M7023 673 c15 -2 37 -2 50 0 12 2 0 4 -28 4 -27 0 -38 -2 -22 -4z"/>
<path d="M8390 645 c-18 -19 -32 -36 -29 -38 2 -2 19 14 38 35 42 48 36 50 -9
3z"/>
<path d="M11467 633 c-4 -27 -3 -64 1 -83 6 -27 8 -16 9 48 0 45 -1 82 -2 82
-1 0 -5 -21 -8 -47z"/>
<path d="M4520 650 c-6 -11 -8 -20 -6 -20 3 0 10 9 16 20 6 11 8 20 6 20 -3 0
-10 -9 -16 -20z"/>
<path d="M3380 656 c0 -2 8 -10 18 -17 15 -13 16 -12 3 4 -13 16 -21 21 -21
13z"/>
<path d="M6530 654 c34 -7 108 -8 103 -1 -2 4 -30 6 -61 6 -31 -1 -50 -3 -42
-5z"/>
<path d="M2980 615 c-14 -8 -20 -14 -14 -15 5 0 19 7 30 15 24 18 16 19 -16 0z"/>
<path d="M3460 610 c8 -5 20 -10 25 -10 6 0 3 5 -5 10 -8 5 -19 10 -25 10 -5
0 -3 -5 5 -10z"/>
<path d="M6763 613 c15 -2 39 -2 55 0 15 2 2 4 -28 4 -30 0 -43 -2 -27 -4z"/>
<path d="M9260 590 c6 -11 13 -20 16 -20 2 0 0 9 -6 20 -6 11 -13 20 -16 20
-2 0 0 -9 6 -20z"/>
<path d="M2885 575 c-25 -12 -26 -14 -5 -9 28 7 60 23 45 23 -5 0 -23 -6 -40
-14z"/>
<path d="M3510 586 c0 -2 8 -10 18 -17 15 -13 16 -12 3 4 -13 16 -21 21 -21
13z"/>
<path d="M4353 559 c-59 -41 -54 -48 5 -8 58 40 57 39 46 39 -5 -1 -28 -14
-51 -31z"/>
<path d="M9301 530 c29 -45 29 -45 29 -34 0 5 -12 23 -26 39 l-26 30 23 -35z"/>
<path d="M3578 543 c7 -3 16 -2 19 1 4 3 -2 6 -13 5 -11 0 -14 -3 -6 -6z"/>
<path d="M6198 535 c5 -11 12 -27 15 -35 5 -13 6 -13 6 1 1 8 -6 24 -15 35
-15 19 -15 19 -6 -1z"/>
<path d="M2765 530 c-3 -6 1 -7 9 -4 18 7 21 14 7 14 -6 0 -13 -4 -16 -10z"/>
<path d="M3633 533 c15 -2 37 -2 50 0 12 2 0 4 -28 4 -27 0 -38 -2 -22 -4z"/>
<path d="M11466 475 c-9 -26 -7 -32 5 -12 6 10 9 21 6 23 -2 3 -7 -2 -11 -11z"/>
<path d="M9331 475 c0 -5 6 -21 14 -35 8 -14 14 -20 14 -15 0 6 -6 21 -14 35
-8 14 -14 21 -14 15z"/>
<path d="M4150 460 c-18 -12 -2 -12 25 0 13 6 15 9 5 9 -8 0 -22 -4 -30 -9z"/>
<path d="M4064 424 c-18 -14 -18 -14 6 -3 31 14 36 19 24 19 -6 0 -19 -7 -30
-16z"/>
<path d="M6185 430 c-3 -6 1 -7 9 -4 18 7 21 14 7 14 -6 0 -13 -4 -16 -10z"/>
<path d="M11442 415 c-7 -14 -12 -64 -12 -111 0 -47 -5 -95 -11 -107 -10 -21
-10 -21 5 -3 12 15 16 43 16 109 0 48 5 97 11 109 6 11 9 22 6 24 -2 2 -9 -7
-15 -21z"/>
<path d="M3810 420 c8 -5 20 -10 25 -10 6 0 3 5 -5 10 -8 5 -19 10 -25 10 -5
0 -3 -5 5 -10z"/>
<path d="M10152 392 c-11 -23 -9 -29 13 -52 17 -17 25 -38 25 -61 1 -37 35
-84 123 -171 43 -42 48 -51 42 -78 l-7 -30 166 0 c91 0 166 3 166 8 0 16 -32
53 -58 65 -15 8 -44 12 -64 10 -31 -3 -38 0 -38 15 0 10 5 23 11 29 7 7 17 45
25 85 7 40 15 82 19 93 6 19 6 19 -6 1 -6 -11 -16 -36 -20 -55 -4 -20 -16 -54
-25 -76 -10 -22 -17 -53 -16 -70 1 -19 -7 -41 -22 -59 l-25 -29 -48 33 c-70
49 -143 134 -143 167 0 18 -13 40 -36 64 -20 21 -43 59 -53 87 l-16 51 -13
-27z"/>
<path d="M3943 393 c9 -2 23 -2 30 0 6 3 -1 5 -18 5 -16 0 -22 -2 -12 -5z"/>
<path d="M6171 384 c0 -11 3 -14 6 -6 3 7 2 16 -1 19 -3 4 -6 -2 -5 -13z"/>
<path d="M8441 317 c-13 -21 -12 -21 5 -5 10 10 16 20 13 22 -3 3 -11 -5 -18
-17z"/>
<path d="M4087 320 c6 -8 13 -26 16 -40 l4 -25 2 26 c0 15 -7 33 -16 40 -16
12 -17 12 -6 -1z"/>
<path d="M9392 305 c0 -16 2 -22 5 -12 2 9 2 23 0 30 -3 6 -5 -1 -5 -18z"/>
<path d="M8415 271 c-3 -12 -18 -36 -33 -54 -23 -28 -23 -29 -3 -12 25 22 55
74 48 82 -3 2 -8 -5 -12 -16z"/>
<path d="M9410 236 c0 -2 8 -10 18 -17 15 -13 16 -12 3 4 -13 16 -21 21 -21
13z"/>
<path d="M11379 163 c-13 -16 -12 -17 4 -4 16 13 21 21 13 21 -2 0 -10 -8 -17
-17z"/>
<path d="M6050 150 c-6 -11 -8 -20 -6 -20 3 0 10 9 16 20 6 11 8 20 6 20 -3 0
-10 -9 -16 -20z"/>
<path d="M4061 127 c-13 -21 -12 -21 5 -5 10 10 16 20 13 22 -3 3 -11 -5 -18
-17z"/>
<path d="M8314 128 l-19 -23 23 19 c12 11 22 21 22 23 0 8 -8 2 -26 -19z"/>
<path d="M11315 130 c-3 -6 1 -7 9 -4 18 7 21 14 7 14 -6 0 -13 -4 -16 -10z"/>
<path d="M9530 126 c0 -2 7 -7 16 -10 8 -3 12 -2 9 4 -6 10 -25 14 -25 6z"/>
<path d="M11274 94 c-18 -14 -18 -15 4 -4 12 6 22 13 22 15 0 8 -5 6 -26 -11z"/>
<path d="M8249 83 c-13 -16 -12 -17 4 -4 9 7 17 15 17 17 0 8 -8 3 -21 -13z"/>
<path d="M9723 93 c9 -2 25 -2 35 0 9 3 1 5 -18 5 -19 0 -27 -2 -17 -5z"/>
<path d="M6016 75 c-3 -9 -6 -24 -5 -33 0 -9 5 -4 10 12 9 32 6 48 -5 21z"/>
<path d="M9815 80 c27 -12 43 -12 25 0 -8 5 -22 9 -30 9 -10 0 -8 -3 5 -9z"/>
<path d="M11179 49 l-24 -20 28 17 c15 9 27 18 27 20 0 8 -8 4 -31 -17z"/>
<path d="M3959 43 c-13 -16 -12 -17 4 -4 16 13 21 21 13 21 -2 0 -10 -8 -17
-17z"/>
<path d="M9890 56 c0 -2 8 -10 18 -17 15 -13 16 -12 3 4 -13 16 -21 21 -21 13z"/>
</g>
</svg>
